<svg width="122" height="96" viewBox="0 0 122 96" fill="none" xmlns="http://www.w3.org/2000/svg">
<rect x="10" y="63" width="32" height="10" stroke="black" stroke-width="3"/>
<path d="M16.5 68V72.5" stroke="black" stroke-width="3"/>
<path d="M23 68V72.5" stroke="black" stroke-width="3"/>
<path d="M30 68V72.5" stroke="black" stroke-width="3"/>
<path d="M36 68V72.5" stroke="black" stroke-width="3"/>
<rect x="3" y="73" width="32" height="10" stroke="black" stroke-width="3"/>
<path d="M9.5 78V82.5" stroke="black" stroke-width="3"/>
<path d="M16 78V82.5" stroke="black" stroke-width="3"/>
<path d="M23 78V82.5" stroke="black" stroke-width="3"/>
<path d="M29 78V82.5" stroke="black" stroke-width="3"/>
<rect x="10" y="84" width="32" height="10" stroke="black" stroke-width="3"/>
<path d="M16.5 89V93.5" stroke="black" stroke-width="3"/>
<path d="M23 89V93.5" stroke="black" stroke-width="3"/>
<path d="M30 89V93.5" stroke="black" stroke-width="3"/>
<path d="M36 89V93.5" stroke="black" stroke-width="3"/>
<rect x="49" y="84" width="32" height="10" stroke="black" stroke-width="3"/>
<path d="M55.5 89V93.5" stroke="black" stroke-width="3"/>
<path d="M62 89V93.5" stroke="black" stroke-width="3"/>
<path d="M69 89V93.5" stroke="black" stroke-width="3"/>
<path d="M75 89V93.5" stroke="black" stroke-width="3"/>
<rect x="88" y="84" width="32" height="10" stroke="black" stroke-width="3"/>
<path d="M94.5 89V93.5" stroke="black" stroke-width="3"/>
<path d="M101 89V93.5" stroke="black" stroke-width="3"/>
<path d="M108 89V93.5" stroke="black" stroke-width="3"/>
<path d="M114 89V93.5" stroke="black" stroke-width="3"/>
<rect x="88" y="74" width="32" height="10" stroke="black" stroke-width="3"/>
<path d="M94.5 79V83.5" stroke="black" stroke-width="3"/>
<path d="M101 79V83.5" stroke="black" stroke-width="3"/>
<path d="M108 79V83.5" stroke="black" stroke-width="3"/>
<path d="M114 79V83.5" stroke="black" stroke-width="3"/>
<rect x="81" y="64" width="32" height="10" stroke="black" stroke-width="3"/>
<path d="M87.5 69V73.5" stroke="black" stroke-width="3"/>
<path d="M94 69V73.5" stroke="black" stroke-width="3"/>
<path d="M101 69V73.5" stroke="black" stroke-width="3"/>
<path d="M107 69V73.5" stroke="black" stroke-width="3"/>
<rect x="87.9438" y="34" width="32" height="10" transform="rotate(43.9783 87.9438 34)" stroke="black" stroke-width="3"/>
<path d="M89.1494 42.1115L86.0247 45.3497" stroke="black" stroke-width="3"/>
<path d="M93.8267 46.625L90.7019 49.8632" stroke="black" stroke-width="3"/>
<path d="M98.8638 51.4857L95.739 54.7239" stroke="black" stroke-width="3"/>
<path d="M103.182 55.652L100.057 58.8903" stroke="black" stroke-width="3"/>
<rect x="49" y="74" width="32" height="10" stroke="black" stroke-width="3"/>
<path d="M55.5 79V83.5" stroke="black" stroke-width="3"/>
<path d="M62 79V83.5" stroke="black" stroke-width="3"/>
<path d="M69 79V83.5" stroke="black" stroke-width="3"/>
<path d="M75 79V83.5" stroke="black" stroke-width="3"/>
<rect x="49" y="64" width="32" height="10" stroke="black" stroke-width="3"/>
<path d="M55.5 69V73.5" stroke="black" stroke-width="3"/>
<path d="M62 69V73.5" stroke="black" stroke-width="3"/>
<path d="M69 69V73.5" stroke="black" stroke-width="3"/>
<path d="M75 69V73.5" stroke="black" stroke-width="3"/>
<rect x="49" y="54" width="32" height="10" stroke="black" stroke-width="3"/>
<path d="M55.5 59V63.5" stroke="black" stroke-width="3"/>
<path d="M62 59V63.5" stroke="black" stroke-width="3"/>
<path d="M69 59V63.5" stroke="black" stroke-width="3"/>
<path d="M75 59V63.5" stroke="black" stroke-width="3"/>
<rect x="49" y="44" width="32" height="10" stroke="black" stroke-width="3"/>
<path d="M55.5 49V53.5" stroke="black" stroke-width="3"/>
<path d="M62 49V53.5" stroke="black" stroke-width="3"/>
<path d="M69 49V53.5" stroke="black" stroke-width="3"/>
<path d="M75 49V53.5" stroke="black" stroke-width="3"/>
<circle cx="65.5" cy="28.5" r="16" stroke="black" stroke-width="3"/>
<path d="M73.7993 32.4497C73.7993 34.2384 73.0645 35.6455 71.5947 36.6709C70.1364 37.6849 68.1141 38.1919 65.5278 38.1919C62.9871 38.1919 61.0389 37.7931 59.6831 36.9956C58.3387 36.1867 57.4443 34.9334 57 33.2358L61.2212 32.6035C61.4604 33.4808 61.8706 34.1017 62.4517 34.4663C63.0441 34.8309 64.0695 35.0132 65.5278 35.0132C66.8722 35.0132 67.8521 34.8423 68.4673 34.5005C69.0825 34.1587 69.3901 33.6232 69.3901 32.894C69.3901 32.3016 69.1395 31.8345 68.6382 31.4927C68.1483 31.1395 67.3109 30.8433 66.126 30.604C63.4144 30.0685 61.5858 29.5729 60.6401 29.1172C59.6945 28.6501 58.971 28.0519 58.4697 27.3228C57.9798 26.5822 57.7349 25.6764 57.7349 24.6055C57.7349 22.8395 58.4128 21.4666 59.7686 20.4868C61.1357 19.4956 63.0669 19 65.562 19C67.7609 19 69.5269 19.4272 70.8599 20.2817C72.2043 21.1362 73.0417 22.3724 73.3721 23.9902L69.1167 24.4346C68.98 23.6826 68.6439 23.1243 68.1084 22.7598C67.5729 22.3838 66.7241 22.1958 65.562 22.1958C64.4227 22.1958 63.5682 22.3439 62.9985 22.6401C62.4289 22.925 62.144 23.4092 62.144 24.0928C62.144 24.6283 62.3605 25.0555 62.7935 25.3745C63.2378 25.6821 63.9784 25.9385 65.0151 26.1436C66.4621 26.4398 67.7438 26.7474 68.8604 27.0664C69.9883 27.374 70.8883 27.7443 71.5605 28.1772C72.2441 28.6102 72.7853 29.1685 73.1841 29.8521C73.5942 30.5243 73.7993 31.3901 73.7993 32.4497Z" fill="black"/>
<path d="M65.5 16V19.5" stroke="black" stroke-width="3"/>
<path d="M65.5 37V40.5" stroke="black" stroke-width="3"/>
<circle cx="25.5" cy="46.5" r="16" transform="rotate(47.1414 25.5 46.5)" stroke="black" stroke-width="3"/>
<path d="M28.2498 55.2703C26.9386 56.4869 25.4073 56.9053 23.656 56.5254C21.9207 56.1461 20.1735 55.0086 18.4144 53.1128C16.6862 51.2503 15.6533 49.551 15.3158 48.0147C14.9943 46.479 15.3046 44.9709 16.2468 43.4905L19.5815 46.1547C19.1012 46.9268 18.925 47.6498 19.053 48.3237C19.1887 49.006 19.7525 49.8816 20.7445 50.9506C21.6589 51.9361 22.4507 52.5381 23.1197 52.7566C23.7887 52.9751 24.3905 52.8364 24.925 52.3404C25.3593 51.9374 25.5312 51.436 25.4408 50.836C25.3664 50.2366 25.014 49.4213 24.3834 48.39C22.9315 46.0381 22.051 44.3605 21.7419 43.3574C21.4411 42.3465 21.3874 41.4093 21.581 40.5458C21.7906 39.683 22.2879 38.8873 23.073 38.1589C24.3675 36.9577 25.8349 36.5208 27.4754 36.8482C29.1319 37.1762 30.8088 38.2546 32.5059 40.0837C34.0016 41.6955 34.8896 43.2806 35.1699 44.839C35.458 46.4057 35.1214 47.8604 34.1603 49.203L30.9401 46.3859C31.3983 45.7742 31.5789 45.1481 31.4819 44.5076C31.3933 43.8593 30.9538 43.1093 30.1633 42.2574C29.3883 41.4222 28.6986 40.8966 28.0939 40.6805C27.4977 40.4567 26.949 40.5773 26.4479 41.0422C26.0554 41.4065 25.8894 41.8557 25.9501 42.3901C26.0268 42.925 26.3426 43.6423 26.8975 44.5418C27.6645 45.8039 28.3109 46.9527 28.8365 47.9882C29.3782 49.0242 29.719 49.9358 29.8588 50.7231C30.0065 51.5187 29.9653 52.2951 29.7355 53.0524C29.5217 53.8102 29.0265 54.5495 28.2498 55.2703Z" fill="black"/>
<path d="M34.6631 37.9976L32.0975 40.3783" stroke="black" stroke-width="3"/>
<path d="M19.269 52.2816L16.7034 54.6623" stroke="black" stroke-width="3"/>
<path d="M2.5 20.5H14" stroke="black" stroke-width="3"/>
<path d="M8.25 26.25L8.25 14.75" stroke="black" stroke-width="3"/>
<path d="M106 37.75H117.5" stroke="black" stroke-width="3"/>
<path d="M111.75 43.5L111.75 32" stroke="black" stroke-width="3"/>
<rect x="53" width="3" height="3" fill="black"/>
<rect x="108" width="3" height="3" fill="black"/>
<rect x="98" y="21" width="3" height="3" fill="black"/>
</svg>
