<svg width="106" height="129" viewBox="0 0 106 129" fill="none" xmlns="http://www.w3.org/2000/svg">
<rect x="0.811609" y="1.15677" width="63.815" height="100.221" rx="3" transform="matrix(0.985109 0.171933 -0.1735 0.984834 36.1349 0.783274)" fill="white" stroke="black" stroke-width="2"/>
<ellipse rx="5.70397" ry="5.67896" transform="matrix(0.985109 0.171933 -0.1735 0.984834 26.4872 67.1057)" fill="white"/>
<mask id="path-3-inside-1" fill="white">
<path d="M23.1096 73.7264C24.1429 74.2486 25.2841 74.524 26.4428 74.5309C27.6016 74.5378 28.7461 74.2758 29.7854 73.7659C30.8248 73.256 31.7306 72.5121 32.4309 71.5931C33.1312 70.6742 33.6068 69.6055 33.82 68.4718C34.0331 67.3381 33.9781 66.1706 33.6591 65.0618C33.3401 63.9529 32.766 62.9333 31.9823 62.0837C31.1985 61.2342 30.2267 60.578 29.1439 60.1673C28.0611 59.7565 26.897 59.6025 25.744 59.7174L25.9146 61.4133C26.803 61.3248 27.6998 61.4435 28.5341 61.7599C29.3684 62.0764 30.1171 62.5819 30.7209 63.2365C31.3248 63.8911 31.7671 64.6766 32.0128 65.5309C32.2586 66.3852 32.301 67.2848 32.1368 68.1583C31.9725 69.0317 31.6061 69.8551 31.0666 70.5631C30.527 71.2711 29.8292 71.8442 29.0284 72.2371C28.2276 72.63 27.3458 72.8318 26.453 72.8265C25.5603 72.8212 24.681 72.609 23.8849 72.2067L23.1096 73.7264Z"/>
</mask>
<path d="M23.1096 73.7264C24.1429 74.2486 25.2841 74.524 26.4428 74.5309C27.6016 74.5378 28.7461 74.2758 29.7854 73.7659C30.8248 73.256 31.7306 72.5121 32.4309 71.5931C33.1312 70.6742 33.6068 69.6055 33.82 68.4718C34.0331 67.3381 33.9781 66.1706 33.6591 65.0618C33.3401 63.9529 32.766 62.9333 31.9823 62.0837C31.1985 61.2342 30.2267 60.578 29.1439 60.1673C28.0611 59.7565 26.897 59.6025 25.744 59.7174L25.9146 61.4133C26.803 61.3248 27.6998 61.4435 28.5341 61.7599C29.3684 62.0764 30.1171 62.5819 30.7209 63.2365C31.3248 63.8911 31.7671 64.6766 32.0128 65.5309C32.2586 66.3852 32.301 67.2848 32.1368 68.1583C31.9725 69.0317 31.6061 69.8551 31.0666 70.5631C30.527 71.2711 29.8292 71.8442 29.0284 72.2371C28.2276 72.63 27.3458 72.8318 26.453 72.8265C25.5603 72.8212 24.681 72.609 23.8849 72.2067L23.1096 73.7264Z" stroke="black" stroke-width="2" mask="url(#path-3-inside-1)"/>
<path d="M89.0605 82.962C88.1259 83.3223 87.1125 83.4312 86.1222 83.2778C85.132 83.1243 84.1998 82.7139 83.4195 82.0879C82.6393 81.4618 82.0385 80.6422 81.6777 79.7116C81.3168 78.781 81.2087 77.7722 81.3641 76.7867C81.5195 75.8013 81.9329 74.8739 82.5629 74.0981C83.1928 73.3223 84.017 72.7253 84.9524 72.3673C85.8879 72.0093 86.9015 71.9029 87.8914 72.0588C88.8813 72.2147 89.8125 72.6274 90.5911 73.2554L86.9998 77.6672L89.0605 82.962Z" fill="white"/>
<path d="M88.7595 82.8522L90.427 73.3874L85.5516 78.3013L88.7595 82.8522Z" fill="white"/>
<mask id="path-6-inside-2" fill="white">
<path d="M90.3774 71.0465C89.3415 70.523 88.1971 70.2475 87.0352 70.242C85.8734 70.2365 84.7264 70.5012 83.6855 71.0149C82.6447 71.5287 81.7388 72.2773 81.04 73.2011C80.3412 74.125 79.8688 75.1985 79.6606 76.3362C79.4523 77.4739 79.5139 78.6442 79.8404 79.754C80.167 80.8638 80.7494 81.8823 81.5413 82.7285C82.3333 83.5746 83.3128 84.2249 84.4019 84.6277C85.491 85.0304 86.6595 85.1743 87.8144 85.0481L87.6274 83.3538C86.7376 83.4511 85.8373 83.3402 84.9982 83.0299C84.1591 82.7197 83.4044 82.2186 82.7943 81.5667C82.1841 80.9148 81.7354 80.13 81.4838 79.275C81.2322 78.42 81.1848 77.5182 81.3453 76.6417C81.5057 75.7652 81.8696 74.9381 82.408 74.2263C82.9464 73.5145 83.6444 72.9377 84.4463 72.5419C85.2483 72.1461 86.132 71.9421 87.0271 71.9464C87.9222 71.9506 88.804 72.1629 89.6021 72.5662L90.3774 71.0465Z"/>
</mask>
<path d="M90.3774 71.0465C89.3415 70.523 88.1971 70.2475 87.0352 70.242C85.8734 70.2365 84.7264 70.5012 83.6855 71.0149C82.6447 71.5287 81.7388 72.2773 81.04 73.2011C80.3412 74.125 79.8688 75.1985 79.6606 76.3362C79.4523 77.4739 79.5139 78.6442 79.8404 79.754C80.167 80.8638 80.7494 81.8823 81.5413 82.7285C82.3333 83.5746 83.3128 84.2249 84.4019 84.6277C85.491 85.0304 86.6595 85.1743 87.8144 85.0481L87.6274 83.3538C86.7376 83.4511 85.8373 83.3402 84.9982 83.0299C84.1591 82.7197 83.4044 82.2186 82.7943 81.5667C82.1841 80.9148 81.7354 80.13 81.4838 79.275C81.2322 78.42 81.1848 77.5182 81.3453 76.6417C81.5057 75.7652 81.8696 74.9381 82.408 74.2263C82.9464 73.5145 83.6444 72.9377 84.4463 72.5419C85.2483 72.1461 86.132 71.9421 87.0271 71.9464C87.9222 71.9506 88.804 72.1629 89.6021 72.5662L90.3774 71.0465Z" stroke="black" stroke-width="2" mask="url(#path-6-inside-2)"/>
<path d="M42.6601 48.643L78.1032 54.829M41.2201 56.8172L49.8648 58.3259M54.6193 59.1558L63.264 60.6645M68.4508 61.5698L76.6632 63.0031M32.9709 68.2373L39.0221 69.2935M43.7767 70.1233L48.9635 71.0286M53.718 71.8584L58.9048 72.7636M64.5239 73.7444L68.8462 74.4987M74.4652 75.4794L79.652 76.3847M36.5968 83.0604L72.0399 89.2464M41.9967 92.8718L63.6083 96.6437" stroke="black" stroke-width="2"/>
<mask id="path-8-inside-3" fill="white">
<path d="M74.7374 22.8461C73.3417 20.866 71.3873 19.3423 69.1216 18.4678C66.8558 17.5933 64.3803 17.4071 62.0083 17.9329C59.6362 18.4586 57.474 19.6727 55.7952 21.4216C54.1164 23.1705 52.9963 25.3756 52.5766 27.7581C52.1568 30.1406 52.4563 32.5934 53.4372 34.8065C54.418 37.0196 56.0362 38.8934 58.087 40.1912C60.1378 41.4889 62.5292 42.1521 64.9588 42.0971C67.3883 42.042 69.7469 41.2711 71.7362 39.8818L69.8402 37.1921C68.3853 38.2081 66.6604 38.7719 64.8836 38.8122C63.1068 38.8525 61.3579 38.3674 59.8581 37.4183C58.3582 36.4693 57.1748 35.0988 56.4575 33.4803C55.7401 31.8618 55.5211 30.068 55.8281 28.3256C56.135 26.5832 56.9542 24.9705 58.182 23.6915C59.4098 22.4125 60.991 21.5246 62.7258 21.14C64.4606 20.7555 66.271 20.8917 67.928 21.5313C69.5851 22.1708 71.0144 23.2851 72.0351 24.7332L74.7374 22.8461Z"/>
</mask>
<path d="M74.7374 22.8461C73.3417 20.866 71.3873 19.3423 69.1216 18.4678C66.8558 17.5933 64.3803 17.4071 62.0083 17.9329C59.6362 18.4586 57.474 19.6727 55.7952 21.4216C54.1164 23.1705 52.9963 25.3756 52.5766 27.7581C52.1568 30.1406 52.4563 32.5934 53.4372 34.8065C54.418 37.0196 56.0362 38.8934 58.087 40.1912C60.1378 41.4889 62.5292 42.1521 64.9588 42.0971C67.3883 42.042 69.7469 41.2711 71.7362 39.8818L69.8402 37.1921C68.3853 38.2081 66.6604 38.7719 64.8836 38.8122C63.1068 38.8525 61.3579 38.3674 59.8581 37.4183C58.3582 36.4693 57.1748 35.0988 56.4575 33.4803C55.7401 31.8618 55.5211 30.068 55.8281 28.3256C56.135 26.5832 56.9542 24.9705 58.182 23.6915C59.4098 22.4125 60.991 21.5246 62.7258 21.14C64.4606 20.7555 66.271 20.8917 67.928 21.5313C69.5851 22.1708 71.0144 23.2851 72.0351 24.7332L74.7374 22.8461Z" stroke="black" stroke-width="6" mask="url(#path-8-inside-3)"/>
<rect x="7.02808" y="13" width="73.3513" height="115" rx="3" fill="white" stroke="black" stroke-width="2"/>
<ellipse cx="8.53972" cy="88.5" rx="6.53045" ry="6.5" fill="white"/>
<mask id="path-11-inside-4" fill="white">
<path d="M6.04659 96.6297C7.3153 97.0151 8.65679 97.1011 9.9647 96.8808C11.2726 96.6605 12.511 96.14 13.5816 95.3605C14.6523 94.581 15.5258 93.564 16.1328 92.39C16.7399 91.2161 17.0639 89.9175 17.0791 88.5973C17.0943 87.2771 16.8002 85.9715 16.2203 84.784C15.6404 83.5965 14.7905 82.5599 13.7381 81.7562C12.6856 80.9525 11.4596 80.4039 10.1571 80.1538C8.85457 79.9038 7.51145 79.9592 6.23421 80.3156L6.76344 82.1943C7.74751 81.9197 8.78232 81.877 9.78584 82.0696C10.7894 82.2623 11.734 82.6849 12.5449 83.3042C13.3557 83.9234 14.0105 84.7221 14.4573 85.637C14.9041 86.5519 15.1307 87.5578 15.119 88.575C15.1073 89.5921 14.8577 90.5926 14.3899 91.4971C13.9222 92.4016 13.2492 93.1852 12.4243 93.7857C11.5994 94.3863 10.6453 94.7874 9.63763 94.9571C8.62994 95.1268 7.59638 95.0606 6.61889 94.7636L6.04659 96.6297Z"/>
</mask>
<path d="M6.04659 96.6297C7.3153 97.0151 8.65679 97.1011 9.9647 96.8808C11.2726 96.6605 12.511 96.14 13.5816 95.3605C14.6523 94.581 15.5258 93.564 16.1328 92.39C16.7399 91.2161 17.0639 89.9175 17.0791 88.5973C17.0943 87.2771 16.8002 85.9715 16.2203 84.784C15.6404 83.5965 14.7905 82.5599 13.7381 81.7562C12.6856 80.9525 11.4596 80.4039 10.1571 80.1538C8.85457 79.9038 7.51145 79.9592 6.23421 80.3156L6.76344 82.1943C7.74751 81.9197 8.78232 81.877 9.78584 82.0696C10.7894 82.2623 11.734 82.6849 12.5449 83.3042C13.3557 83.9234 14.0105 84.7221 14.4573 85.637C14.9041 86.5519 15.1307 87.5578 15.119 88.575C15.1073 89.5921 14.8577 90.5926 14.3899 91.4971C13.9222 92.4016 13.2492 93.1852 12.4243 93.7857C11.5994 94.3863 10.6453 94.7874 9.63763 94.9571C8.62994 95.1268 7.59638 95.0606 6.61889 94.7636L6.04659 96.6297Z" stroke="black" stroke-width="2" mask="url(#path-11-inside-4)"/>
<path d="M82.2429 94.0645C81.2608 94.6547 80.1398 94.9769 78.9927 94.9988C77.8457 95.0206 76.7131 94.7413 75.709 94.189C74.7049 93.6367 73.8647 92.8308 73.2729 91.8525C72.6812 90.8742 72.3589 89.758 72.3383 88.6163C72.3178 87.4746 72.5998 86.3476 73.156 85.3489C73.7122 84.3501 74.5229 83.5148 75.5065 82.9271C76.4901 82.3393 77.6119 82.0199 78.759 82.0009C79.9061 81.9819 81.038 82.264 82.0407 82.8188L78.8677 88.5L82.2429 94.0645Z" fill="white"/>
<path d="M81.8817 94V83L77.3606 89.5L81.8817 94Z" fill="white"/>
<mask id="path-14-inside-5" fill="white">
<path d="M81.3609 80.3703C80.0889 79.9838 78.7437 79.8984 77.4327 80.1209C76.1216 80.3433 74.8808 80.8675 73.8093 81.6516C72.7377 82.4357 71.865 83.4581 71.2606 84.6372C70.6562 85.8164 70.3369 87.1198 70.328 88.4436C70.3192 89.7673 70.6211 91.0748 71.2097 92.2619C71.7983 93.449 72.6574 94.4828 73.7184 95.281C74.7794 96.0792 76.013 96.6197 77.321 96.8594C78.629 97.0992 79.9751 97.0315 81.2522 96.6619L80.7049 94.7884C79.7209 95.0732 78.6838 95.1253 77.676 94.9406C76.6683 94.7559 75.7178 94.3394 74.9004 93.7245C74.0829 93.1095 73.421 92.313 72.9675 91.3984C72.514 90.4838 72.2814 89.4764 72.2882 88.4565C72.295 87.4366 72.5411 86.4324 73.0067 85.5239C73.4724 84.6154 74.1448 83.8277 74.9704 83.2236C75.796 82.6194 76.7519 82.2156 77.762 82.0442C78.7722 81.8728 79.8085 81.9387 80.7886 82.2364L81.3609 80.3703Z"/>
</mask>
<path d="M81.3609 80.3703C80.0889 79.9838 78.7437 79.8984 77.4327 80.1209C76.1216 80.3433 74.8808 80.8675 73.8093 81.6516C72.7377 82.4357 71.865 83.4581 71.2606 84.6372C70.6562 85.8164 70.3369 87.1198 70.328 88.4436C70.3192 89.7673 70.6211 91.0748 71.2097 92.2619C71.7983 93.449 72.6574 94.4828 73.7184 95.281C74.7794 96.0792 76.013 96.6197 77.321 96.8594C78.629 97.0992 79.9751 97.0315 81.2522 96.6619L80.7049 94.7884C79.7209 95.0732 78.6838 95.1253 77.676 94.9406C76.6683 94.7559 75.7178 94.3394 74.9004 93.7245C74.0829 93.1095 73.421 92.313 72.9675 91.3984C72.514 90.4838 72.2814 89.4764 72.2882 88.4565C72.295 87.4366 72.5411 86.4324 73.0067 85.5239C73.4724 84.6154 74.1448 83.8277 74.9704 83.2236C75.796 82.6194 76.7519 82.2156 77.762 82.0442C78.7722 81.8728 79.8085 81.9387 80.7886 82.2364L81.3609 80.3703Z" stroke="black" stroke-width="2" mask="url(#path-14-inside-5)"/>
<path d="M23.1077 64.5H64.2998M23.1077 74H33.1546M38.6803 74H48.7272M54.7553 74H64.2998M16.075 88.5H23.1077M28.6335 88.5H34.6616M40.1874 88.5H46.2155M52.7459 88.5H57.7693M64.2998 88.5H70.3279M23.1077 104.5H64.2998M31.1452 114.5H56.2623" stroke="black" stroke-width="2"/>
<mask id="path-16-inside-6" fill="white">
<path d="M54.1521 29.1005C52.185 27.1426 49.6787 25.8092 46.9503 25.269C44.2218 24.7288 41.3937 25.0061 38.8235 26.0657C36.2534 27.1253 34.0566 28.9197 32.5111 31.222C30.9656 33.5243 30.1406 36.2311 30.1406 39C30.1406 41.7689 30.9656 44.4757 32.5111 46.778C34.0566 49.0803 36.2534 50.8747 38.8235 51.9343C41.3937 52.9939 44.2218 53.2712 46.9503 52.731C49.6787 52.1908 52.185 50.8574 54.1521 48.8995L51.48 46.2399C50.0414 47.6718 48.2085 48.6469 46.213 49.042C44.2176 49.437 42.1493 49.2343 40.2697 48.4593C38.39 47.6844 36.7835 46.3721 35.6531 44.6883C34.5228 43.0046 33.9195 41.025 33.9195 39C33.9195 36.975 34.5228 34.9954 35.6531 33.3117C36.7835 31.6279 38.39 30.3156 40.2697 29.5407C42.1493 28.7657 44.2176 28.563 46.213 28.958C48.2085 29.3531 50.0414 30.3282 51.48 31.7601L54.1521 29.1005Z"/>
</mask>
<path d="M54.1521 29.1005C52.185 27.1426 49.6787 25.8092 46.9503 25.269C44.2218 24.7288 41.3937 25.0061 38.8235 26.0657C36.2534 27.1253 34.0566 28.9197 32.5111 31.222C30.9656 33.5243 30.1406 36.2311 30.1406 39C30.1406 41.7689 30.9656 44.4757 32.5111 46.778C34.0566 49.0803 36.2534 50.8747 38.8235 51.9343C41.3937 52.9939 44.2218 53.2712 46.9503 52.731C49.6787 52.1908 52.185 50.8574 54.1521 48.8995L51.48 46.2399C50.0414 47.6718 48.2085 48.6469 46.213 49.042C44.2176 49.437 42.1493 49.2343 40.2697 48.4593C38.39 47.6844 36.7835 46.3721 35.6531 44.6883C34.5228 43.0046 33.9195 41.025 33.9195 39C33.9195 36.975 34.5228 34.9954 35.6531 33.3117C36.7835 31.6279 38.39 30.3156 40.2697 29.5407C42.1493 28.7657 44.2176 28.563 46.213 28.958C48.2085 29.3531 50.0414 30.3282 51.48 31.7601L54.1521 29.1005Z" stroke="black" stroke-width="6" mask="url(#path-16-inside-6)"/>
</svg>
