<svg width="16" height="16" viewBox="0 0 16 16" fill="none" xmlns="http://www.w3.org/2000/svg">
<circle cx="8" cy="8" r="7.5" stroke="black"/>
<mask id="path-2-inside-1" fill="white">
<path d="M8 2C7.21207 2 6.43185 2.15519 5.7039 2.45672C4.97595 2.75825 4.31451 3.20021 3.75736 3.75736C3.20021 4.31451 2.75825 4.97595 2.45672 5.7039C2.15519 6.43185 2 7.21207 2 8L3.00121 8C3.00121 7.34355 3.13051 6.69353 3.38172 6.08705C3.63294 5.48057 4.00114 4.92951 4.46532 4.46533C4.9295 4.00115 5.48057 3.63294 6.08705 3.38173C6.69353 3.13051 7.34355 3.00121 8 3.00121L8 2Z"/>
</mask>
<path d="M8 2C7.21207 2 6.43185 2.15519 5.7039 2.45672C4.97595 2.75825 4.31451 3.20021 3.75736 3.75736C3.20021 4.31451 2.75825 4.97595 2.45672 5.7039C2.15519 6.43185 2 7.21207 2 8L3.00121 8C3.00121 7.34355 3.13051 6.69353 3.38172 6.08705C3.63294 5.48057 4.00114 4.92951 4.46532 4.46533C4.9295 4.00115 5.48057 3.63294 6.08705 3.38173C6.69353 3.13051 7.34355 3.00121 8 3.00121L8 2Z" stroke="black" stroke-width="2" stroke-linecap="square" stroke-linejoin="round" mask="url(#path-2-inside-1)"/>
<mask id="path-3-inside-2" fill="white">
<path d="M8 14C8.78793 14 9.56815 13.8448 10.2961 13.5433C11.0241 13.2417 11.6855 12.7998 12.2426 12.2426C12.7998 11.6855 13.2417 11.0241 13.5433 10.2961C13.8448 9.56815 14 8.78793 14 8L12.9988 8C12.9988 8.65645 12.8695 9.30647 12.6183 9.91295C12.3671 10.5194 11.9989 11.0705 11.5347 11.5347C11.0705 11.9989 10.5194 12.3671 9.91295 12.6183C9.30647 12.8695 8.65645 12.9988 8 12.9988L8 14Z"/>
</mask>
<path d="M8 14C8.78793 14 9.56815 13.8448 10.2961 13.5433C11.0241 13.2417 11.6855 12.7998 12.2426 12.2426C12.7998 11.6855 13.2417 11.0241 13.5433 10.2961C13.8448 9.56815 14 8.78793 14 8L12.9988 8C12.9988 8.65645 12.8695 9.30647 12.6183 9.91295C12.3671 10.5194 11.9989 11.0705 11.5347 11.5347C11.0705 11.9989 10.5194 12.3671 9.91295 12.6183C9.30647 12.8695 8.65645 12.9988 8 12.9988L8 14Z" stroke="black" stroke-width="2" stroke-linecap="square" stroke-linejoin="round" mask="url(#path-3-inside-2)"/>
<path d="M4.78356 6.95491L6.51416 6.95492C6.94739 6.95492 7.33134 6.67595 7.46522 6.26393L8 4.61803L8.53478 6.26393C8.66866 6.67596 9.05262 6.95492 9.48584 6.95492H11.2164L9.81636 7.97214C9.46587 8.22678 9.31921 8.67815 9.45309 9.09017L9.98787 10.7361L8.58778 9.71885C8.2373 9.4642 7.7627 9.4642 7.41222 9.71885L6.01213 10.7361L6.54691 9.09017C6.68079 8.67815 6.53413 8.22678 6.18364 7.97214L4.78356 6.95491ZM4.78356 6.95491V6.45492L4.78356 6.95491L4.48967 7.35942L4.78356 6.95491Z" stroke="black"/>
</svg>
