<svg width="99" height="114" viewBox="0 0 99 114" fill="none" xmlns="http://www.w3.org/2000/svg">
<path d="M2.301 101.615H4.329V106.88H2.301V101.615ZM1.053 107.946H5.577V100.549H1.053V107.946ZM9.412 99.262V103.838H8.073V99.483H6.812V110.442H8.073V104.93H9.412V110.988H10.686V99.262H9.412ZM22.294 99.249H20.955V105.216H22.294V99.249ZM14.143 102.291C14.143 101.355 14.897 100.744 15.911 100.744C16.938 100.744 17.705 101.355 17.705 102.291C17.705 103.227 16.938 103.838 15.911 103.838C14.897 103.838 14.143 103.227 14.143 102.291ZM19.005 102.291C19.005 100.744 17.692 99.639 15.911 99.639C14.143 99.639 12.843 100.744 12.843 102.291C12.843 103.838 14.143 104.93 15.911 104.93C17.692 104.93 19.005 103.838 19.005 102.291ZM15.937 109.805V108.765H22.294V105.749H14.598V106.802H20.968V107.777H14.624V110.858H22.645V109.805H15.937ZM26.219 101.615H28.247V106.88H26.219V101.615ZM24.971 107.946H29.495V100.549H24.971V107.946ZM33.33 99.262V103.838H31.991V99.483H30.73V110.442H31.991V104.93H33.33V110.988H34.604V99.262H33.33ZM46.212 99.249H44.873V105.216H46.212V99.249ZM38.061 102.291C38.061 101.355 38.815 100.744 39.829 100.744C40.856 100.744 41.623 101.355 41.623 102.291C41.623 103.227 40.856 103.838 39.829 103.838C38.815 103.838 38.061 103.227 38.061 102.291ZM42.923 102.291C42.923 100.744 41.61 99.639 39.829 99.639C38.061 99.639 36.761 100.744 36.761 102.291C36.761 103.838 38.061 104.93 39.829 104.93C41.61 104.93 42.923 103.838 42.923 102.291ZM39.855 109.805V108.765H46.212V105.749H38.516V106.802H44.886V107.777H38.542V110.858H46.563V109.805H39.855ZM52.0429 100.367V108.128H57.5549V100.367H52.0429ZM56.2419 101.433V107.049H53.3559V101.433H56.2419ZM59.7259 99.249V111.027H61.0779V99.249H59.7259ZM71.7628 107.998H73.1018V99.262H71.7628V100.9H69.5788V101.992H71.7628V103.253H69.5788V104.332H71.7628V107.998ZM70.2938 105.333C68.5388 104.657 67.5638 103.032 67.5638 101.368V99.912H66.1988V101.368C66.1988 103.136 65.1848 104.813 63.3518 105.489L64.0798 106.542C65.4188 106.009 66.3938 104.969 66.9008 103.643C67.3948 104.865 68.3178 105.866 69.5528 106.386L70.2938 105.333ZM66.8098 109.688V107.153H65.4578V110.78H73.3748V109.688H66.8098ZM85.4898 103.591C83.1238 103.253 81.3558 101.784 81.3558 100.263V99.639H79.9388V100.263C79.9388 101.81 78.1968 103.253 75.8048 103.591L76.3248 104.67C78.2748 104.358 79.8998 103.383 80.6538 102.018C81.4208 103.37 83.0198 104.358 84.9698 104.67L85.4898 103.591ZM85.9448 105.775H75.3368V106.867H79.9388V111.014H81.2778V106.867H85.9448V105.775ZM94.7318 103.422H95.9538V106.659H97.2278V99.249H95.9538V102.317H94.7318V99.47H93.4838V106.269H94.7318V103.422ZM93.0808 100.575H90.8188V99.366H89.5058V100.575H87.2308V101.628H93.0808V100.575ZM88.8558 104.163C88.8558 103.526 89.3758 103.11 90.1688 103.11C90.9488 103.11 91.4948 103.526 91.4948 104.163C91.4948 104.8 90.9488 105.216 90.1688 105.216C89.3758 105.216 88.8558 104.8 88.8558 104.163ZM92.6908 104.163C92.6908 102.954 91.6508 102.135 90.1688 102.135C88.6998 102.135 87.6598 102.954 87.6598 104.163C87.6598 105.385 88.6998 106.191 90.1688 106.191C91.6508 106.191 92.6908 105.385 92.6908 104.163ZM93.3278 109.987C91.6508 109.987 90.6888 109.61 90.6888 108.908C90.6888 108.206 91.6508 107.842 93.3278 107.842C95.0178 107.842 95.9538 108.206 95.9538 108.908C95.9538 109.61 95.0178 109.987 93.3278 109.987ZM93.3278 106.828C90.8448 106.828 89.3498 107.582 89.3498 108.908C89.3498 110.234 90.8448 111.001 93.3278 111.001C95.8108 111.001 97.2928 110.234 97.2928 108.908C97.2928 107.582 95.8108 106.828 93.3278 106.828Z" fill="#666666"/>
<path d="M19.408 80.968V90.872H26.496V80.968H19.408ZM24.416 82.632V89.208H21.488V82.632H24.416ZM28.784 79.64V94.408H30.896V79.64H28.784ZM43.6148 90.552H45.7268V79.64H43.6148V81.56H41.1667V83.24H43.6148V84.392H41.1667V86.088H43.6148V90.552ZM42.2068 87.096C39.8708 86.216 38.9108 84.2 38.9108 82.184V80.472H36.7668V82.184C36.7668 84.328 35.7588 86.392 33.3268 87.256L34.4308 88.904C36.1108 88.28 37.2308 87.08 37.8548 85.576C38.4628 86.984 39.5028 88.12 41.0388 88.728L42.2068 87.096ZM38.1108 92.44V89.56H35.9988V94.12H46.0468V92.44H38.1108ZM60.6305 86.36C58.3585 85.592 57.3345 83.816 57.3025 82.136H60.1665V80.456H52.2465V82.136H55.1425C55.1105 83.96 54.0385 85.832 51.6705 86.632L52.7425 88.296C54.4545 87.736 55.6065 86.552 56.2625 85.112C56.8865 86.424 57.9905 87.48 59.6065 88.008L60.6305 86.36ZM54.0225 90.744H61.9585V94.392H64.0705V89.064H54.0225V90.744ZM61.9585 79.656V83.16H59.7825V84.856H61.9585V88.408H64.0705V79.656H61.9585ZM75.3653 85.512C73.4453 85.832 71.7333 85.896 69.3013 85.912V84.696H73.9893V80.312H67.2053V81.992H71.9093V83.128H67.2213V87.608H68.5173C71.4453 87.608 73.4133 87.56 75.6053 87.192L75.3653 85.512ZM76.6133 92.52H70.9973V91.336H76.6133V92.52ZM76.6133 89.72H70.9973V88.472H68.9013V94.2H78.7093V88.472H76.6133V89.72ZM76.5813 79.64V87.864H78.7093V79.64H76.5813Z" fill="black" fill-opacity="0.8"/>
<path d="M19 62H27M81 62H73M27 62C34.4928 53.4961 37.5168 47.6327 39.5 34H60.5C62.2236 46.6744 65.1238 52.7147 73 62M27 62H73" stroke="black" stroke-width="2"/>
<path d="M48 34V24.5M48 24.5C44.6644 22.3461 42.8861 20.7189 40 16.5V1.5H60V16.5C57.9099 20.1253 56.1706 21.886 52 24.5M48 24.5H52M52 34V24.5" stroke="black" stroke-width="2"/>
<path d="M40 4.99979C37.7945 3.52575 36.5827 3.32539 34.5 4.99979V11.4998C36.306 14.1972 37.5559 15.1931 40 16.4998M60 4.99979C62.2079 3.49188 63.4133 3.50599 65.5 4.99979V11.4998C63.7835 14.288 62.5127 15.254 60 16.4998" stroke="black" stroke-width="2" stroke-linecap="round" stroke-linejoin="round"/>
<path d="M40 6H60M44 9.5V14C44.1133 16.0526 44.5382 16.6786 45.5 17.5" stroke="black" stroke-width="2"/>
<path d="M37.5 10L40 8.5" stroke="black" stroke-width="2" stroke-linecap="round"/>
<path d="M62.0959 10.7633L60 8.73674" stroke="black" stroke-width="2" stroke-linecap="round"/>
<path d="M50.3475 34V37C50.3475 37 47.1015 37 46.174 37C45.2466 37 42.7077 39.436 42.0005 41.5C41.3947 43.8297 41.3686 44.0418 42.0005 46C42.9785 48.1802 44.3733 48.9001 46.174 50H52.2024C53.3131 51.0734 53.2176 52.6129 52.2024 53.5H48.4926C46.1784 54.5011 45.3714 55.3803 44.7828 57.5V62" stroke="black" stroke-width="2" stroke-linejoin="round"/>
<path d="M49.36 62L49.5 58C49.5 58 52.5 58 53.5 58C54.5 58 56.7375 56.564 57.5 54.5C58.1533 52.1703 58.1814 50.9582 57.5 49C56.4455 46.8198 55.8016 46.5999 53.86 45.5L47.5 45.5C46.3024 44.4266 46.4054 42.3871 47.5 41.5L51.36 41.5C53.8553 40.4989 53.8655 40.6197 54.5 38.5L54.5 34" stroke="black" stroke-width="2" stroke-linejoin="round"/>
<path d="M19.5 32H28.5M24 27V36.5" stroke="black" stroke-width="2"/>
<path d="M72 32H81M76.5 27V36.5" stroke="black" stroke-width="2"/>
<path d="M21 20.3333H27M24 17V23.3333" stroke="black" stroke-width="2"/>
<path d="M73.5 20.3333H79.5M76.5 17V23.3333" stroke="black" stroke-width="2"/>
<path d="M21 44.3333H27M24 41V47.3333" stroke="black" stroke-width="2"/>
<path d="M73.5 44.3333H79.5M76.5 41V47.3333" stroke="black" stroke-width="2"/>
</svg>
