<svg width="126" height="112" viewBox="0 0 126 112" fill="none" xmlns="http://www.w3.org/2000/svg">
<path d="M3.159 99.264H8.749V102.748H3.159V99.264ZM6.63 106.466V103.814H10.062V98.198H1.846V103.814H5.291V106.466H0.663V107.558H11.297V106.466H6.63ZM22.047 100.902H15.274V98.809H21.956V97.73H13.948V101.994H22.047V100.902ZM15.274 105.309H13.935V108.767H22.138V107.688H15.274V105.309ZM12.635 103.125V104.217H23.256V103.125H12.635ZM35.8079 97.249V109.027H37.1599V97.249H35.8079ZM30.9069 98.12C29.1649 98.12 27.8909 99.732 27.8909 102.254C27.8909 104.802 29.1649 106.401 30.9069 106.401C32.6619 106.401 33.9359 104.802 33.9359 102.254C33.9359 99.732 32.6619 98.12 30.9069 98.12ZM30.9069 99.329C31.9339 99.329 32.6489 100.434 32.6489 102.254C32.6489 104.1 31.9339 105.205 30.9069 105.205C29.8929 105.205 29.1779 104.1 29.1779 102.254C29.1779 100.434 29.8929 99.329 30.9069 99.329ZM49.3919 97.262H48.1179V106.154H49.3919V97.262ZM43.2689 102.956H41.1889V101.123H43.2689V102.956ZM44.5169 101.682H45.8429V105.803H47.1039V97.483H45.8429V100.59H44.5169V98.185H43.2689V100.083H41.1889V98.185H39.9279V104.022H44.5169V101.682ZM42.9829 107.688V104.984H41.6309V108.78H49.7169V107.688H42.9829ZM60.8699 103.463H54.0969V101.851H60.5189V100.798H54.0969V99.29H60.7789V98.211H52.7319V104.542H60.8699V103.463ZM51.4189 106.466V107.558H62.0659V106.466H51.4189ZM71.3468 99.264H64.7298V101.903H72.8808V100.967H66.0428V100.135H72.6728V97.548H64.7038V98.471H71.3468V99.264ZM65.9518 107.051H72.7118V104.425H64.5998V105.348H71.3858V106.18H64.6258V108.871H73.0628V107.948H65.9518V107.051ZM63.3648 102.644V103.632H74.0118V102.644H63.3648ZM83.5348 108C81.7668 108 80.8438 107.714 80.8438 107.09C80.8438 106.492 81.7668 106.193 83.5348 106.193C85.3158 106.193 86.2388 106.492 86.2388 107.09C86.2388 107.714 85.3158 108 83.5348 108ZM83.5348 105.205C80.9868 105.205 79.4918 105.855 79.4918 107.09C79.4918 108.338 80.9868 109.001 83.5348 109.001C86.0958 109.001 87.5778 108.338 87.5778 107.09C87.5778 105.855 86.0958 105.205 83.5348 105.205ZM84.2238 103.398V102.436H87.6688V101.409H80.9347V100.499H87.3048V99.498H80.9347V98.614H87.5908V97.587H79.5958V102.436H82.8718V103.398H78.2308V104.477H88.8518V103.398H84.2238ZM97.1577 98.38H94.3627V97.158H93.0237V98.38H90.2287V99.459H97.1577V98.38ZM92.1267 101.955C92.1267 101.292 92.7507 100.889 93.6867 100.889C94.6227 100.889 95.2597 101.292 95.2597 101.955C95.2597 102.631 94.6227 103.034 93.6867 103.034C92.7507 103.034 92.1267 102.631 92.1267 101.955ZM96.5337 101.955C96.5337 100.72 95.3897 99.888 93.6867 99.888C91.9967 99.888 90.8397 100.72 90.8397 101.955C90.8397 103.203 91.9967 104.035 93.6867 104.035C95.3897 104.035 96.5337 103.203 96.5337 101.955ZM98.0547 107.792H93.2057V106.713H98.0547V107.792ZM98.0547 105.673H93.2057V104.594H91.8797V108.858H99.3807V104.594H98.0547V105.673ZM101.045 100.187H99.3807V97.262H98.0417V104.113H99.3807V101.292H101.045V100.187ZM105.594 105.374C104.645 105.374 103.956 104.724 103.956 103.736C103.956 102.748 104.645 102.098 105.594 102.098C106.543 102.098 107.232 102.748 107.232 103.736C107.232 104.724 106.543 105.374 105.594 105.374ZM105.594 100.993C103.904 100.993 102.682 102.137 102.682 103.736C102.682 105.348 103.904 106.479 105.594 106.479C107.271 106.479 108.506 105.348 108.506 103.736C108.506 102.137 107.271 100.993 105.594 100.993ZM106.244 97.431H104.905V99.069H102.11V100.161H108.987V99.069H106.244V97.431ZM113.095 101.981H111.288V97.262H109.936V109.014H111.288V103.099H113.095V101.981ZM115.941 99.459H120.062V98.367H114.602V106.128H115.564C117.683 106.128 119.269 106.063 121.05 105.738L120.907 104.633C119.269 104.919 117.839 104.997 115.941 105.01V99.459ZM125.054 101.773H123.221V97.249H121.882V109.014H123.221V102.878H125.054V101.773Z" fill="#666666"/>
<path d="M50.784 77.624V92.408H52.896V77.624H50.784ZM44.976 78.664C42.752 78.664 41.104 80.68 41.104 83.912C41.104 87.16 42.752 89.192 44.976 89.192C47.2 89.192 48.848 87.16 48.848 83.912C48.848 80.68 47.2 78.664 44.976 78.664ZM44.976 80.568C46.064 80.568 46.816 81.736 46.816 83.912C46.816 86.104 46.064 87.272 44.976 87.272C43.888 87.272 43.136 86.104 43.136 83.912C43.136 81.736 43.888 80.568 44.976 80.568ZM67.9668 77.64H65.9668V88.76H67.9668V77.64ZM59.8068 84.552H57.9028V82.632H59.8068V84.552ZM61.7588 83.4H63.0068V88.328H64.9748V77.88H63.0068V81.704H61.7588V78.76H59.8068V81.016H57.9028V78.76H55.9188V86.232H61.7588V83.4ZM60.1588 90.44V87.32H58.0468V92.12H68.3348V90.44H60.1588ZM82.0455 85.24H73.8375V83.592H81.5975V81.96H73.8375V80.408H81.9335V78.712H71.6935V86.904H82.0455V85.24ZM70.1255 88.968V90.68H83.4695V88.968H70.1255Z" fill="black" fill-opacity="0.8"/>
<mask id="path-3-inside-1" fill="white">
<path d="M44 26C42.5555 26 41.1251 26.2845 39.7905 26.8373C38.4559 27.3901 37.2433 28.2004 36.2218 29.2218C35.2004 30.2433 34.3901 31.4559 33.8373 32.7905C33.2845 34.1251 33 35.5555 33 37C33 38.4445 33.2845 39.8749 33.8373 41.2095C34.3901 42.5441 35.2004 43.7567 36.2218 44.7782C37.2433 45.7996 38.4559 46.6099 39.7905 47.1627C41.1251 47.7155 42.5555 48 44 48L44 37L44 26Z"/>
</mask>
<path d="M44 26C42.5555 26 41.1251 26.2845 39.7905 26.8373C38.4559 27.3901 37.2433 28.2004 36.2218 29.2218C35.2004 30.2433 34.3901 31.4559 33.8373 32.7905C33.2845 34.1251 33 35.5555 33 37C33 38.4445 33.2845 39.8749 33.8373 41.2095C34.3901 42.5441 35.2004 43.7567 36.2218 44.7782C37.2433 45.7996 38.4559 46.6099 39.7905 47.1627C41.1251 47.7155 42.5555 48 44 48L44 37L44 26Z" stroke="black" stroke-width="4" mask="url(#path-3-inside-1)"/>
<path d="M43 27H47V47H43" stroke="black" stroke-width="2"/>
<mask id="path-5-inside-2" fill="white">
<path d="M81 48C82.4445 48 83.8749 47.7155 85.2095 47.1627C86.5441 46.6099 87.7567 45.7996 88.7782 44.7782C89.7996 43.7567 90.6099 42.5441 91.1627 41.2095C91.7155 39.8749 92 38.4445 92 37C92 35.5555 91.7155 34.1251 91.1627 32.7905C90.6099 31.4559 89.7996 30.2433 88.7782 29.2218C87.7567 28.2004 86.5441 27.3901 85.2095 26.8373C83.8749 26.2845 82.4445 26 81 26L81 37L81 48Z"/>
</mask>
<path d="M81 48C82.4445 48 83.8749 47.7155 85.2095 47.1627C86.5441 46.6099 87.7567 45.7996 88.7782 44.7782C89.7996 43.7567 90.6099 42.5441 91.1627 41.2095C91.7155 39.8749 92 38.4445 92 37C92 35.5555 91.7155 34.1251 91.1627 32.7905C90.6099 31.4559 89.7996 30.2433 88.7782 29.2218C87.7567 28.2004 86.5441 27.3901 85.2095 26.8373C83.8749 26.2845 82.4445 26 81 26L81 37L81 48Z" stroke="black" stroke-width="4" mask="url(#path-5-inside-2)"/>
<path d="M81 47L78 47L78 27L81 27" stroke="black" stroke-width="2"/>
<rect x="56" y="56" width="12" height="5" rx="2.5" stroke="black" stroke-width="2"/>
<mask id="path-8-inside-3" fill="white">
<path d="M88.1834 28.7805C88.2826 21.7535 85.702 14.9864 81.009 9.968C76.3161 4.94956 69.8954 2.09081 63.1593 2.02065C56.4233 1.9505 49.9237 4.67467 45.0904 9.59389C40.2571 14.5131 37.486 21.2244 37.3867 28.2514L39.3158 28.2715C39.4075 21.7782 41.9681 15.5767 46.4343 11.0311C50.9005 6.48549 56.9065 3.96822 63.1309 4.03305C69.3553 4.09788 75.2884 6.7395 79.6249 11.3768C83.9613 16.014 86.346 22.2671 86.2543 28.7604L88.1834 28.7805Z"/>
</mask>
<path d="M88.1834 28.7805C88.2826 21.7535 85.702 14.9864 81.009 9.968C76.3161 4.94956 69.8954 2.09081 63.1593 2.02065C56.4233 1.9505 49.9237 4.67467 45.0904 9.59389C40.2571 14.5131 37.486 21.2244 37.3867 28.2514L39.3158 28.2715C39.4075 21.7782 41.9681 15.5767 46.4343 11.0311C50.9005 6.48549 56.9065 3.96822 63.1309 4.03305C69.3553 4.09788 75.2884 6.7395 79.6249 11.3768C83.9613 16.014 86.346 22.2671 86.2543 28.7604L88.1834 28.7805Z" stroke="black" stroke-width="4" mask="url(#path-8-inside-3)"/>
<path d="M68.5 58.5H76M82 47.5V53.5" stroke="black" stroke-width="2"/>
<path d="M82.9218 53.8878C83.1359 53.3787 82.8968 52.7924 82.3878 52.5782C81.8787 52.3641 81.2924 52.6032 81.0782 53.1122L82.9218 53.8878ZM75.911 57.504C75.3609 57.5531 74.9548 58.0389 75.004 58.589C75.0531 59.1391 75.5389 59.5452 76.089 59.496L75.911 57.504ZM82 53.5C81.0782 53.1122 81.0784 53.1119 81.0785 53.1116C81.0785 53.1116 81.0786 53.1113 81.0787 53.1111C81.0788 53.1109 81.0789 53.1106 81.079 53.1105C81.0791 53.1102 81.0791 53.1101 81.079 53.1104C81.0788 53.1109 81.0782 53.1124 81.077 53.115C81.0748 53.1202 81.0707 53.1296 81.0647 53.1429C81.0528 53.1694 81.0335 53.2115 81.0069 53.267C80.9535 53.3782 80.8709 53.5423 80.7589 53.7425C80.534 54.1449 80.1964 54.6831 79.7469 55.228C78.8335 56.3351 77.5555 57.3571 75.911 57.504L76.089 59.496C78.4932 59.2813 80.2151 57.8032 81.2896 56.5007C81.834 55.8409 82.2372 55.1969 82.5048 54.7183C82.639 54.478 82.7405 54.2769 82.8096 54.133C82.8442 54.061 82.8708 54.0031 82.8895 53.9615C82.8988 53.9407 82.9062 53.924 82.9115 53.9116C82.9142 53.9054 82.9164 53.9003 82.9181 53.8963C82.919 53.8944 82.9197 53.8926 82.9203 53.8912C82.9206 53.8905 82.9209 53.8899 82.9211 53.8893C82.9212 53.889 82.9214 53.8886 82.9215 53.8885C82.9216 53.8881 82.9218 53.8878 82 53.5Z" fill="black"/>
<path d="M44 12C44.2929 14.1782 45.3442 15.4554 47.5 15.4998C59.3472 5.4942 65.9223 5.09735 77.5 15C80.2361 14.7986 81 14 81.5 11.5" stroke="black" stroke-width="2" stroke-linejoin="round"/>
</svg>
