<svg width="114" height="110" viewBox="0 0 114 110" fill="none" xmlns="http://www.w3.org/2000/svg">
<path d="M2.405 96.406H1.066V104.076H2.041C3.809 104.076 5.629 103.946 7.618 103.556L7.462 102.451C5.681 102.815 3.991 102.945 2.405 102.958V96.406ZM11.531 99.838H9.75V95.262H8.411V107.001H9.75V100.943H11.531V99.838ZM16.405 96.081C14.572 96.081 13.22 97.238 13.22 98.902C13.22 100.566 14.572 101.723 16.405 101.723C18.238 101.723 19.603 100.566 19.603 98.902C19.603 97.238 18.238 96.081 16.405 96.081ZM16.405 97.225C17.497 97.225 18.29 97.875 18.29 98.902C18.29 99.916 17.497 100.579 16.405 100.579C15.326 100.579 14.533 99.916 14.533 98.902C14.533 97.875 15.326 97.225 16.405 97.225ZM20.929 95.249V107.014H22.281V95.249H20.929ZM12.843 104.531C14.923 104.531 17.731 104.505 20.318 104.011L20.227 103.036C17.705 103.413 14.78 103.426 12.674 103.426L12.843 104.531ZM32.7789 106C31.0109 106 30.0879 105.714 30.0879 105.09C30.0879 104.492 31.0109 104.193 32.7789 104.193C34.5599 104.193 35.4829 104.492 35.4829 105.09C35.4829 105.714 34.5599 106 32.7789 106ZM32.7789 103.205C30.2309 103.205 28.7359 103.855 28.7359 105.09C28.7359 106.338 30.2309 107.001 32.7789 107.001C35.3399 107.001 36.8219 106.338 36.8219 105.09C36.8219 103.855 35.3399 103.205 32.7789 103.205ZM33.4679 101.398V100.436H36.9129V99.409H30.1789V98.499H36.5489V97.498H30.1789V96.614H36.8349V95.587H28.8399V100.436H32.1159V101.398H27.4749V102.477H38.0959V101.398H33.4679ZM46.4019 96.38H43.6069V95.158H42.2679V96.38H39.4729V97.459H46.4019V96.38ZM41.3709 99.955C41.3709 99.292 41.9949 98.889 42.9309 98.889C43.8669 98.889 44.5039 99.292 44.5039 99.955C44.5039 100.631 43.8669 101.034 42.9309 101.034C41.9949 101.034 41.3709 100.631 41.3709 99.955ZM45.7779 99.955C45.7779 98.72 44.6339 97.888 42.9309 97.888C41.2409 97.888 40.0839 98.72 40.0839 99.955C40.0839 101.203 41.2409 102.035 42.9309 102.035C44.6339 102.035 45.7779 101.203 45.7779 99.955ZM47.2989 105.792H42.4499V104.713H47.2989V105.792ZM47.2989 103.673H42.4499V102.594H41.1239V106.858H48.6249V102.594H47.2989V103.673ZM50.2889 98.187H48.6249V95.262H47.2859V102.113H48.6249V99.292H50.2889V98.187ZM53.4339 100.657H57.5289V96.302H52.0559V97.394H56.1769V99.578H52.0819V104.232H53.0829C55.1499 104.232 56.9049 104.167 58.9199 103.816L58.7769 102.724C56.9179 103.023 55.2929 103.114 53.4339 103.127V100.657ZM59.7519 95.236V107.027H61.1039V95.236H59.7519ZM67.1478 96.822C68.1488 96.822 68.8508 97.342 68.8508 98.148C68.8508 98.967 68.1488 99.474 67.1478 99.474C66.1338 99.474 65.4318 98.967 65.4318 98.148C65.4318 97.342 66.1338 96.822 67.1478 96.822ZM67.1478 100.514C68.8768 100.514 70.1118 99.565 70.1118 98.148C70.1118 96.757 68.8768 95.808 67.1478 95.808C65.4058 95.808 64.1708 96.757 64.1708 98.148C64.1708 99.565 65.4058 100.514 67.1478 100.514ZM70.9828 100.969C68.4478 101.32 65.5358 101.346 63.3258 101.346L63.4948 102.451C64.3788 102.451 65.3668 102.438 66.4068 102.399V106.637H67.7458V102.334C68.8508 102.269 69.9688 102.152 71.0608 101.957L70.9828 100.969ZM71.8018 95.262V103.218H69.2928V104.245H71.8018V107.001H73.1538V95.262H71.8018ZM84.7748 100.8H77.9758V97.381H84.6838V96.289H76.6368V101.879H84.7748V100.8ZM75.3368 104.388V105.493H85.9838V104.388H75.3368ZM93.7387 98.434H95.7537V97.329H93.7387V95.665H92.4647V97.329H90.4367V98.434H92.4647V98.85C92.4647 100.722 91.6847 102.724 90.0727 103.673L90.8397 104.687C91.9577 104.037 92.6987 102.854 93.1147 101.476C93.5437 102.75 94.2977 103.829 95.4027 104.427L96.1437 103.426C94.5317 102.555 93.7387 100.683 93.7387 98.85V98.434ZM96.5857 99.812H94.9997V100.904H96.5857V106.429H97.8467V95.496H96.5857V99.812ZM98.9517 95.262V107.001H100.226V95.262H98.9517ZM103.085 99.89L103.254 100.982L110.183 100.631C110.118 101.489 109.988 102.412 109.741 103.465L111.067 103.582C111.587 101.112 111.587 99.5 111.587 97.797V96.38H103.41V97.459H110.274V97.797C110.274 98.395 110.274 98.993 110.248 99.617L103.085 99.89ZM102.175 104.375V105.48H112.783V104.375H102.175Z" fill="#666666"/>
<path d="M21.536 77.352V79.032H25.216C25.168 79.608 25.088 80.152 24.96 80.68L20.768 80.904L21.008 82.68L24.416 82.312C23.712 83.752 22.544 84.968 20.656 86.072L21.824 87.544C26.208 85 27.248 81.544 27.248 77.352H21.536ZM31.344 75.64V81.24H30.064V75.96H28.096V89.736H30.064V82.952H31.344V90.376H33.344V75.64H31.344ZM41.1188 76.776H39.0068V78.92C39.0068 81.784 37.7908 84.632 35.2148 85.736L36.4788 87.48C38.2388 86.648 39.4388 85.064 40.0948 83.096C40.7508 84.904 41.8868 86.36 43.5828 87.128L44.7828 85.416C42.2868 84.344 41.1188 81.656 41.1188 78.92V76.776ZM45.5028 75.624V90.408H47.6148V75.624H45.5028ZM58.2855 79.496H55.2615V77.608H58.2855V79.496ZM53.1655 79.496H51.3895V81.064H62.1415V79.496H60.3815V77.608H62.2535V76.04H51.2935V77.608H53.1655V79.496ZM53.7575 87.944H61.8215V84.296H51.6455V85.816H59.7415V86.536H51.6615V90.264H62.2055V88.744H53.7575V87.944ZM50.1255 81.816V83.48H63.4375V81.816H50.1255ZM72.5563 87.032V84.84H77.0203V83.144H68.4763V81.496H76.6843V76.584H66.3643V78.264H74.6043V79.848H66.3803V84.84H70.4443V87.032H64.8443V88.76H78.1883V87.032H72.5563ZM86.203 77.816C88.123 77.816 89.355 78.392 89.355 79.448C89.355 80.52 88.123 81.096 86.203 81.096C84.267 81.096 83.035 80.52 83.035 79.448C83.035 78.392 84.267 77.816 86.203 77.816ZM86.203 82.776C89.339 82.776 91.531 81.48 91.531 79.448C91.531 77.448 89.339 76.136 86.203 76.136C83.051 76.136 80.875 77.448 80.875 79.448C80.875 81.48 83.051 82.776 86.203 82.776ZM92.907 83.88H79.563V85.576H85.131V90.392H87.243V85.576H92.907V83.88Z" fill="black" fill-opacity="0.8"/>
<path d="M57 16.3499L58.1679 18.7973L59.0704 18.3667L58.1679 18.7973C58.4594 19.4084 59.0403 19.8304 59.7115 19.9189L62.4001 20.2733L60.4333 22.1403C59.9423 22.6064 59.7204 23.2893 59.8437 23.955L60.3374 26.6214L57.954 25.3279C57.359 25.0049 56.641 25.0049 56.046 25.3279L53.6626 26.6214L54.1563 23.955C54.2796 23.2893 54.0577 22.6064 53.5667 22.1403L51.5999 20.2733L54.2885 19.9189C54.9597 19.8304 55.5406 19.4084 55.8321 18.7973L57 16.3499Z" stroke="black" stroke-width="2"/>
<circle cx="57" cy="22" r="12" stroke="black" stroke-width="2"/>
<path d="M60.8582 3.38042C57.6226 0.216139 55.8755 0.196928 52.8582 3.38042C46.7604 2.67105 44.7624 3.84276 43.8582 8.88046C38.5532 10.3044 37.7195 12.5203 38.3582 17.8805C35.1932 20.9222 35.2347 22.6741 38.3582 25.8805C37.5078 31.3753 37.868 33.8201 42.8582 34.8805C44.1648 39.8062 45.9731 41.3247 52.3582 40.3805C55.5593 43.8501 57.4958 44.2262 61.3582 40.3805C69.2603 41.3867 70.137 38.8199 71.8582 34.3805C76.1217 33.7187 76.581 31.576 75.3582 25.8805C78.7183 22.8712 78.897 21.2251 75.3582 18.3805C76.2141 12.5129 75.5718 10.1024 69.8582 9.38046C69.1366 3.81389 67.052 2.63169 60.8582 3.38042Z" stroke="black" stroke-width="2"/>
<path d="M43.5 37L33.5 53.5L41.5 52L43.5 59.5L53.5 42M60 42L69.5 59.5L71.5 52L80.5 54.5L71 37.5" stroke="black" stroke-width="2"/>
<path d="M80.5 1C80.5 1 80.1352 3.53944 79 4.5C78.0573 5.2977 76 5.5 76 5.5" stroke="black" stroke-width="2" stroke-linecap="round" stroke-linejoin="round"/>
<path d="M80.5 1C80.5 1 80.8648 3.53944 82 4.5C82.9427 5.2977 85 5.5 85 5.5" stroke="black" stroke-width="2" stroke-linecap="round" stroke-linejoin="round"/>
<path d="M80.5 10C80.5 10 80.1352 7.46056 79 6.5C78.0573 5.7023 76 5.5 76 5.5" stroke="black" stroke-width="2" stroke-linecap="round" stroke-linejoin="round"/>
<path d="M80.5 10C80.5 10 80.8648 7.46056 82 6.5C82.9427 5.7023 85 5.5 85 5.5" stroke="black" stroke-width="2" stroke-linecap="round" stroke-linejoin="round"/>
<path d="M80.5 33C80.5 33 80.1352 35.5394 79 36.5C78.0573 37.2977 76 37.5 76 37.5" stroke="black" stroke-width="2" stroke-linecap="round" stroke-linejoin="round"/>
<path d="M80.5 33C80.5 33 80.8648 35.5394 82 36.5C82.9427 37.2977 85 37.5 85 37.5" stroke="black" stroke-width="2" stroke-linecap="round" stroke-linejoin="round"/>
<path d="M80.5 42C80.5 42 80.1352 39.4606 79 38.5C78.0573 37.7023 76 37.5 76 37.5" stroke="black" stroke-width="2" stroke-linecap="round" stroke-linejoin="round"/>
<path d="M80.5 42C80.5 42 80.8648 39.4606 82 38.5C82.9427 37.7023 85 37.5 85 37.5" stroke="black" stroke-width="2" stroke-linecap="round" stroke-linejoin="round"/>
<path d="M33.5 33C33.5 33 33.1352 35.5394 32 36.5C31.0573 37.2977 29 37.5 29 37.5" stroke="black" stroke-width="2" stroke-linecap="round" stroke-linejoin="round"/>
<path d="M33.5 33C33.5 33 33.8648 35.5394 35 36.5C35.9427 37.2977 38 37.5 38 37.5" stroke="black" stroke-width="2" stroke-linecap="round" stroke-linejoin="round"/>
<path d="M33.5 42C33.5 42 33.1352 39.4606 32 38.5C31.0573 37.7023 29 37.5 29 37.5" stroke="black" stroke-width="2" stroke-linecap="round" stroke-linejoin="round"/>
<path d="M33.5 42C33.5 42 33.8648 39.4606 35 38.5C35.9427 37.7023 38 37.5 38 37.5" stroke="black" stroke-width="2" stroke-linecap="round" stroke-linejoin="round"/>
<path d="M32.5 1C32.5 1 32.1352 3.53944 31 4.5C30.0573 5.2977 28 5.5 28 5.5" stroke="black" stroke-width="2" stroke-linecap="round" stroke-linejoin="round"/>
<path d="M32.5 1C32.5 1 32.8648 3.53944 34 4.5C34.9427 5.2977 37 5.5 37 5.5" stroke="black" stroke-width="2" stroke-linecap="round" stroke-linejoin="round"/>
<path d="M32.5 10C32.5 10 32.1352 7.46056 31 6.5C30.0573 5.7023 28 5.5 28 5.5" stroke="black" stroke-width="2" stroke-linecap="round" stroke-linejoin="round"/>
<path d="M32.5 10C32.5 10 32.8648 7.46056 34 6.5C34.9427 5.7023 37 5.5 37 5.5" stroke="black" stroke-width="2" stroke-linecap="round" stroke-linejoin="round"/>
<rect x="83" y="19" width="2" height="2" fill="black"/>
<rect x="29" y="19" width="2" height="2" fill="black"/>
<rect x="85" y="21" width="2" height="2" fill="black"/>
<rect x="31" y="21" width="2" height="2" fill="black"/>
<rect x="81" y="21" width="2" height="2" fill="black"/>
<rect x="27" y="21" width="2" height="2" fill="black"/>
<rect x="83" y="23" width="2" height="2" fill="black"/>
<rect x="29" y="23" width="2" height="2" fill="black"/>
</svg>
