<svg width="126" height="105" viewBox="0 0 126 105" fill="none" xmlns="http://www.w3.org/2000/svg">
<path d="M3.159 92.264H8.749V95.748H3.159V92.264ZM6.63 99.466V96.814H10.062V91.198H1.846V96.814H5.291V99.466H0.663V100.558H11.297V99.466H6.63ZM22.047 93.902H15.274V91.809H21.956V90.73H13.948V94.994H22.047V93.902ZM15.274 98.309H13.935V101.767H22.138V100.688H15.274V98.309ZM12.635 96.125V97.217H23.256V96.125H12.635ZM35.8079 90.249V102.027H37.1599V90.249H35.8079ZM30.9069 91.12C29.1649 91.12 27.8909 92.732 27.8909 95.254C27.8909 97.802 29.1649 99.401 30.9069 99.401C32.6619 99.401 33.9359 97.802 33.9359 95.254C33.9359 92.732 32.6619 91.12 30.9069 91.12ZM30.9069 92.329C31.9339 92.329 32.6489 93.434 32.6489 95.254C32.6489 97.1 31.9339 98.205 30.9069 98.205C29.8929 98.205 29.1779 97.1 29.1779 95.254C29.1779 93.434 29.8929 92.329 30.9069 92.329ZM49.3919 90.262H48.1179V99.154H49.3919V90.262ZM43.2689 95.956H41.1889V94.123H43.2689V95.956ZM44.5169 94.682H45.8429V98.803H47.1039V90.483H45.8429V93.59H44.5169V91.185H43.2689V93.083H41.1889V91.185H39.9279V97.022H44.5169V94.682ZM42.9829 100.688V97.984H41.6309V101.78H49.7169V100.688H42.9829ZM60.8699 96.463H54.0969V94.851H60.5189V93.798H54.0969V92.29H60.7789V91.211H52.7319V97.542H60.8699V96.463ZM51.4189 99.466V100.558H62.0659V99.466H51.4189ZM71.3468 92.264H64.7298V94.903H72.8808V93.967H66.0428V93.135H72.6728V90.548H64.7038V91.471H71.3468V92.264ZM65.9518 100.051H72.7118V97.425H64.5998V98.348H71.3858V99.18H64.6258V101.871H73.0628V100.948H65.9518V100.051ZM63.3648 95.644V96.632H74.0118V95.644H63.3648ZM83.5348 101C81.7668 101 80.8438 100.714 80.8438 100.09C80.8438 99.492 81.7668 99.193 83.5348 99.193C85.3158 99.193 86.2388 99.492 86.2388 100.09C86.2388 100.714 85.3158 101 83.5348 101ZM83.5348 98.205C80.9868 98.205 79.4918 98.855 79.4918 100.09C79.4918 101.338 80.9868 102.001 83.5348 102.001C86.0958 102.001 87.5778 101.338 87.5778 100.09C87.5778 98.855 86.0958 98.205 83.5348 98.205ZM84.2238 96.398V95.436H87.6688V94.409H80.9347V93.499H87.3048V92.498H80.9347V91.614H87.5908V90.587H79.5958V95.436H82.8718V96.398H78.2308V97.477H88.8518V96.398H84.2238ZM97.1577 91.38H94.3627V90.158H93.0237V91.38H90.2287V92.459H97.1577V91.38ZM92.1267 94.955C92.1267 94.292 92.7507 93.889 93.6867 93.889C94.6227 93.889 95.2597 94.292 95.2597 94.955C95.2597 95.631 94.6227 96.034 93.6867 96.034C92.7507 96.034 92.1267 95.631 92.1267 94.955ZM96.5337 94.955C96.5337 93.72 95.3897 92.888 93.6867 92.888C91.9967 92.888 90.8397 93.72 90.8397 94.955C90.8397 96.203 91.9967 97.035 93.6867 97.035C95.3897 97.035 96.5337 96.203 96.5337 94.955ZM98.0547 100.792H93.2057V99.713H98.0547V100.792ZM98.0547 98.673H93.2057V97.594H91.8797V101.858H99.3807V97.594H98.0547V98.673ZM101.045 93.187H99.3807V90.262H98.0417V97.113H99.3807V94.292H101.045V93.187ZM105.594 98.374C104.645 98.374 103.956 97.724 103.956 96.736C103.956 95.748 104.645 95.098 105.594 95.098C106.543 95.098 107.232 95.748 107.232 96.736C107.232 97.724 106.543 98.374 105.594 98.374ZM105.594 93.993C103.904 93.993 102.682 95.137 102.682 96.736C102.682 98.348 103.904 99.479 105.594 99.479C107.271 99.479 108.506 98.348 108.506 96.736C108.506 95.137 107.271 93.993 105.594 93.993ZM106.244 90.431H104.905V92.069H102.11V93.161H108.987V92.069H106.244V90.431ZM113.095 94.981H111.288V90.262H109.936V102.014H111.288V96.099H113.095V94.981ZM115.941 92.459H120.062V91.367H114.602V99.128H115.564C117.683 99.128 119.269 99.063 121.05 98.738L120.907 97.633C119.269 97.919 117.839 97.997 115.941 98.01V92.459ZM125.054 94.773H123.221V90.249H121.882V102.014H123.221V95.878H125.054V94.773Z" fill="#666666"/>
<path d="M50.784 70.624V85.408H52.896V70.624H50.784ZM44.976 71.664C42.752 71.664 41.104 73.68 41.104 76.912C41.104 80.16 42.752 82.192 44.976 82.192C47.2 82.192 48.848 80.16 48.848 76.912C48.848 73.68 47.2 71.664 44.976 71.664ZM44.976 73.568C46.064 73.568 46.816 74.736 46.816 76.912C46.816 79.104 46.064 80.272 44.976 80.272C43.888 80.272 43.136 79.104 43.136 76.912C43.136 74.736 43.888 73.568 44.976 73.568ZM67.9668 70.64H65.9668V81.76H67.9668V70.64ZM59.8068 77.552H57.9028V75.632H59.8068V77.552ZM61.7588 76.4H63.0068V81.328H64.9748V70.88H63.0068V74.704H61.7588V71.76H59.8068V74.016H57.9028V71.76H55.9188V79.232H61.7588V76.4ZM60.1588 83.44V80.32H58.0468V85.12H68.3348V83.44H60.1588ZM82.0455 78.24H73.8375V76.592H81.5975V74.96H73.8375V73.408H81.9335V71.712H71.6935V79.904H82.0455V78.24ZM70.1255 81.968V83.68H83.4695V81.968H70.1255Z" fill="black" fill-opacity="0.8"/>
<path d="M63 11.322L65.0319 15.5802C65.3235 16.1912 65.9044 16.6133 66.5756 16.7018L71.2532 17.3184L67.8314 20.5667C67.3403 21.0328 67.1185 21.7157 67.2417 22.3813L68.1008 27.0206L63.954 24.77C63.359 24.4471 62.641 24.4471 62.046 24.77L57.8992 27.0206L58.7583 22.3813C58.8815 21.7157 58.6597 21.0328 58.1686 20.5667L54.7468 17.3184L59.4244 16.7018C60.0956 16.6133 60.6765 16.1912 60.9681 15.5802L63 11.322Z" stroke="black" stroke-width="2"/>
<path d="M89.8698 21.8774L89.2158 24.5091C89.0526 25.1662 89.2328 25.8612 89.6947 26.3561L91.5451 28.3385L88.8401 28.5299C88.1648 28.5776 87.5594 28.9638 87.2315 29.5561L85.9179 31.9285L84.9 29.415C84.6459 28.7875 84.0916 28.3311 83.427 28.2023L80.7647 27.6861L82.8407 25.9413C83.359 25.5057 83.6217 24.8375 83.5389 24.1656L83.2071 21.4741L85.508 22.9093C86.0824 23.2676 86.7991 23.311 87.4126 23.0246L89.8698 21.8774Z" stroke="black" stroke-width="2"/>
<path d="M43.8698 9.87736L43.2158 12.5091C43.0526 13.1662 43.2328 13.8612 43.6947 14.3561L45.5451 16.3385L42.8401 16.5299C42.1648 16.5776 41.5594 16.9638 41.2315 17.5561L39.9179 19.9285L38.9 17.415C38.6459 16.7875 38.0916 16.3311 37.4269 16.2023L34.7647 15.6861L36.8407 13.9413C37.359 13.5057 37.6217 12.8375 37.5389 12.1656L37.2071 9.47412L39.508 10.9093C40.0824 11.2676 40.7991 11.311 41.4126 11.0246L43.8698 9.87736Z" stroke="black" stroke-width="2"/>
<circle cx="71.5" cy="8.5" r="2.5" stroke="black" stroke-width="2"/>
<circle cx="42.5" cy="45.5" r="2.5" stroke="black" stroke-width="2"/>
<circle cx="84.5" cy="41.5" r="2.5" stroke="black" stroke-width="2"/>
<path d="M63 30V53M68 53C68 53 67.4794 42.8623 69 37C71.23 28.4028 81 18.5 81 18.5M72.5 53C72.5 53 72.4443 49.1766 73 46.5C74.296 40.2579 83 33.5 83 33.5" stroke="black" stroke-width="2"/>
<path d="M58 53C58 53 58.5206 42.8623 57 37C54.77 28.4028 45 18.5 45 18.5M53.5 53C53.5 53 53.5557 49.1766 53 46.5C51.704 40.2579 43 33.5 43 33.5" stroke="black" stroke-width="2"/>
<path d="M53 1.5C53 1.5 52.6352 4.03944 51.5 5C50.5573 5.7977 48.5 6 48.5 6" stroke="black" stroke-width="2" stroke-linecap="round" stroke-linejoin="round"/>
<path d="M53 1.5C53 1.5 53.3648 4.03944 54.5 5C55.4427 5.7977 57.5 6 57.5 6" stroke="black" stroke-width="2" stroke-linecap="round" stroke-linejoin="round"/>
<path d="M53 10.5C53 10.5 52.6352 7.96056 51.5 7C50.5573 6.2023 48.5 6 48.5 6" stroke="black" stroke-width="2" stroke-linecap="round" stroke-linejoin="round"/>
<path d="M53 10.5C53 10.5 53.3648 7.96056 54.5 7C55.4427 6.2023 57.5 6 57.5 6" stroke="black" stroke-width="2" stroke-linecap="round" stroke-linejoin="round"/>
<path d="M39.5 23C39.5 23 39.1352 25.5394 38 26.5C37.0573 27.2977 35 27.5 35 27.5" stroke="black" stroke-width="2" stroke-linecap="round" stroke-linejoin="round"/>
<path d="M39.5 23C39.5 23 39.8648 25.5394 41 26.5C41.9427 27.2977 44 27.5 44 27.5" stroke="black" stroke-width="2" stroke-linecap="round" stroke-linejoin="round"/>
<path d="M39.5 32C39.5 32 39.1352 29.4606 38 28.5C37.0573 27.7023 35 27.5 35 27.5" stroke="black" stroke-width="2" stroke-linecap="round" stroke-linejoin="round"/>
<path d="M39.5 32C39.5 32 39.8648 29.4606 41 28.5C41.9427 27.7023 44 27.5 44 27.5" stroke="black" stroke-width="2" stroke-linecap="round" stroke-linejoin="round"/>
<path d="M84.5 6C84.5 6 84.1352 8.53944 83 9.5C82.0573 10.2977 80 10.5 80 10.5" stroke="black" stroke-width="2" stroke-linecap="round" stroke-linejoin="round"/>
<path d="M84.5 6C84.5 6 84.8648 8.53944 86 9.5C86.9427 10.2977 89 10.5 89 10.5" stroke="black" stroke-width="2" stroke-linecap="round" stroke-linejoin="round"/>
<path d="M84.5 15C84.5 15 84.1352 12.4606 83 11.5C82.0573 10.7023 80 10.5 80 10.5" stroke="black" stroke-width="2" stroke-linecap="round" stroke-linejoin="round"/>
<path d="M84.5 15C84.5 15 84.8648 12.4606 86 11.5C86.9427 10.7023 89 10.5 89 10.5" stroke="black" stroke-width="2" stroke-linecap="round" stroke-linejoin="round"/>
</svg>
