<svg width="114" height="112" viewBox="0 0 114 112" fill="none" xmlns="http://www.w3.org/2000/svg">
<path d="M2.405 98.406H1.066V106.076H2.041C3.809 106.076 5.629 105.946 7.618 105.556L7.462 104.451C5.681 104.815 3.991 104.945 2.405 104.958V98.406ZM11.531 101.838H9.75V97.262H8.411V109.001H9.75V102.943H11.531V101.838ZM16.405 98.081C14.572 98.081 13.22 99.238 13.22 100.902C13.22 102.566 14.572 103.723 16.405 103.723C18.238 103.723 19.603 102.566 19.603 100.902C19.603 99.238 18.238 98.081 16.405 98.081ZM16.405 99.225C17.497 99.225 18.29 99.875 18.29 100.902C18.29 101.916 17.497 102.579 16.405 102.579C15.326 102.579 14.533 101.916 14.533 100.902C14.533 99.875 15.326 99.225 16.405 99.225ZM20.929 97.249V109.014H22.281V97.249H20.929ZM12.843 106.531C14.923 106.531 17.731 106.505 20.318 106.011L20.227 105.036C17.705 105.413 14.78 105.426 12.674 105.426L12.843 106.531ZM32.7789 108C31.0109 108 30.0879 107.714 30.0879 107.09C30.0879 106.492 31.0109 106.193 32.7789 106.193C34.5599 106.193 35.4829 106.492 35.4829 107.09C35.4829 107.714 34.5599 108 32.7789 108ZM32.7789 105.205C30.2309 105.205 28.7359 105.855 28.7359 107.09C28.7359 108.338 30.2309 109.001 32.7789 109.001C35.3399 109.001 36.8219 108.338 36.8219 107.09C36.8219 105.855 35.3399 105.205 32.7789 105.205ZM33.4679 103.398V102.436H36.9129V101.409H30.1789V100.499H36.5489V99.498H30.1789V98.614H36.8349V97.587H28.8399V102.436H32.1159V103.398H27.4749V104.477H38.0959V103.398H33.4679ZM46.4019 98.38H43.6069V97.158H42.2679V98.38H39.4729V99.459H46.4019V98.38ZM41.3709 101.955C41.3709 101.292 41.9949 100.889 42.9309 100.889C43.8669 100.889 44.5039 101.292 44.5039 101.955C44.5039 102.631 43.8669 103.034 42.9309 103.034C41.9949 103.034 41.3709 102.631 41.3709 101.955ZM45.7779 101.955C45.7779 100.72 44.6339 99.888 42.9309 99.888C41.2409 99.888 40.0839 100.72 40.0839 101.955C40.0839 103.203 41.2409 104.035 42.9309 104.035C44.6339 104.035 45.7779 103.203 45.7779 101.955ZM47.2989 107.792H42.4499V106.713H47.2989V107.792ZM47.2989 105.673H42.4499V104.594H41.1239V108.858H48.6249V104.594H47.2989V105.673ZM50.2889 100.187H48.6249V97.262H47.2859V104.113H48.6249V101.292H50.2889V100.187ZM53.4339 102.657H57.5289V98.302H52.0559V99.394H56.1769V101.578H52.0819V106.232H53.0829C55.1499 106.232 56.9049 106.167 58.9199 105.816L58.7769 104.724C56.9179 105.023 55.2929 105.114 53.4339 105.127V102.657ZM59.7519 97.236V109.027H61.1039V97.236H59.7519ZM67.1478 98.822C68.1488 98.822 68.8508 99.342 68.8508 100.148C68.8508 100.967 68.1488 101.474 67.1478 101.474C66.1338 101.474 65.4318 100.967 65.4318 100.148C65.4318 99.342 66.1338 98.822 67.1478 98.822ZM67.1478 102.514C68.8768 102.514 70.1118 101.565 70.1118 100.148C70.1118 98.757 68.8768 97.808 67.1478 97.808C65.4058 97.808 64.1708 98.757 64.1708 100.148C64.1708 101.565 65.4058 102.514 67.1478 102.514ZM70.9828 102.969C68.4478 103.32 65.5358 103.346 63.3258 103.346L63.4948 104.451C64.3788 104.451 65.3668 104.438 66.4068 104.399V108.637H67.7458V104.334C68.8508 104.269 69.9688 104.152 71.0608 103.957L70.9828 102.969ZM71.8018 97.262V105.218H69.2928V106.245H71.8018V109.001H73.1538V97.262H71.8018ZM84.7748 102.8H77.9758V99.381H84.6838V98.289H76.6368V103.879H84.7748V102.8ZM75.3368 106.388V107.493H85.9838V106.388H75.3368ZM93.7387 100.434H95.7537V99.329H93.7387V97.665H92.4647V99.329H90.4367V100.434H92.4647V100.85C92.4647 102.722 91.6847 104.724 90.0727 105.673L90.8397 106.687C91.9577 106.037 92.6987 104.854 93.1147 103.476C93.5437 104.75 94.2977 105.829 95.4027 106.427L96.1437 105.426C94.5317 104.555 93.7387 102.683 93.7387 100.85V100.434ZM96.5857 101.812H94.9997V102.904H96.5857V108.429H97.8467V97.496H96.5857V101.812ZM98.9517 97.262V109.001H100.226V97.262H98.9517ZM103.085 101.89L103.254 102.982L110.183 102.631C110.118 103.489 109.988 104.412 109.741 105.465L111.067 105.582C111.587 103.112 111.587 101.5 111.587 99.797V98.38H103.41V99.459H110.274V99.797C110.274 100.395 110.274 100.993 110.248 101.617L103.085 101.89ZM102.175 106.375V107.48H112.783V106.375H102.175Z" fill="#666666"/>
<path d="M32.312 90.84C30.28 90.84 29.336 90.568 29.336 89.96C29.336 89.352 30.28 89.096 32.312 89.096C34.36 89.096 35.304 89.352 35.304 89.96C35.304 90.568 34.36 90.84 32.312 90.84ZM32.312 87.544C29.08 87.544 27.208 88.376 27.208 89.96C27.208 91.528 29.08 92.376 32.312 92.376C35.56 92.376 37.432 91.528 37.432 89.96C37.432 88.376 35.56 87.544 32.312 87.544ZM33.384 85.24V84.328H37.592V82.728H29.432V81.928H37.144V80.392H29.432V79.624H37.48V78.024H27.336V84.328H31.272V85.24H25.672V86.888H39V85.24H33.384ZM49.0948 78.936H45.7988V77.528H43.6708V78.936H40.3908V80.584H49.0788L49.0948 78.936ZM43.1428 83.592C43.1428 82.888 43.7988 82.52 44.7428 82.52C45.6868 82.52 46.3428 82.888 46.3428 83.592C46.3428 84.296 45.6868 84.664 44.7428 84.664C43.7988 84.664 43.1428 84.296 43.1428 83.592ZM48.3588 83.592C48.3588 82.024 46.8708 80.984 44.7428 80.984C42.6148 80.984 41.1268 82.024 41.1268 83.592C41.1268 85.144 42.6148 86.2 44.7428 86.2C46.8708 86.2 48.3588 85.144 48.3588 83.592ZM49.9108 90.568H44.5188V89.544H49.9108V90.568ZM49.9108 87.944H44.5188V86.824H42.4228V92.216H52.0068V86.824H49.9108V87.944ZM53.9588 81.176H52.0068V77.64H49.8948V86.264H52.0068V82.904H53.9588V81.176ZM71.6625 84.104C68.2545 83.608 66.4785 81.48 66.4785 79.496V78.424H64.2225V79.496C64.2225 81.464 62.4145 83.608 59.0545 84.104L59.9025 85.864C62.4945 85.416 64.3825 84.072 65.3425 82.344C66.3025 84.072 68.1905 85.4 70.7985 85.864L71.6625 84.104ZM68.8145 88.968V86.008H66.7185V88.968H64.1265V86.008H62.0145V88.968H58.7345V90.664H72.0945V88.968H68.8145ZM85.7093 77.64H83.5813V86.536H85.7093V77.64ZM77.2933 80.424H78.8453V84.104C78.3333 84.136 77.8053 84.152 77.2933 84.168V80.424ZM82.5893 83.784C82.0293 83.864 81.4693 83.928 80.8773 83.96V80.424H82.0293V78.744H74.0933V80.424H75.2613V84.216C74.7173 84.216 74.2053 84.216 73.7253 84.216L73.9493 85.944C76.3813 85.944 79.7733 85.864 82.7333 85.304L82.5893 83.784ZM80.7653 90.776C78.8453 90.776 77.8213 90.408 77.8213 89.592C77.8213 88.792 78.8453 88.408 80.7653 88.408C82.6853 88.408 83.6933 88.792 83.6933 89.592C83.6933 90.408 82.6853 90.776 80.7653 90.776ZM80.7653 86.808C77.6293 86.808 75.7093 87.832 75.7093 89.592C75.7093 91.352 77.6293 92.376 80.7653 92.376C83.8853 92.376 85.8053 91.352 85.8053 89.592C85.8053 87.832 83.8853 86.808 80.7653 86.808Z" fill="black" fill-opacity="0.8"/>
<path d="M27 17L26 60H50.5M87.5 60L85.5 31.5H76M87.5 60H77.5M87.5 60L83 54M50.5 60L53 31.5H76M50.5 60H77.5M76 31.5L77.5 60" stroke="black" stroke-width="2" stroke-linejoin="bevel"/>
<path d="M78 60L83 54L81 31.5M36 17V26M36 26L33 28V36.5H39V28L36 26Z" stroke="black" stroke-width="2" stroke-linejoin="bevel"/>
<path d="M26.5 17L36 17M68.5 31V17H64M59.5 17V31M59.5 17H64M59.5 17H53M59.5 17V7.49999C59.5 7.49999 54.6131 1.27875 50.5 1.5C46.7142 1.70364 42.5 7.49999 42.5 7.49999V17M64 17V31.5M36 17V12V8.00004C36 8.00004 39.9797 1.7039 44 1.49999C48.4469 1.27444 53 8.50003 53 8.50003V17M36 17H42.5M53 17H42.5" stroke="black" stroke-width="2" stroke-linejoin="bevel"/>
</svg>
