<svg width="99" height="97" viewBox="0 0 99 97" fill="none" xmlns="http://www.w3.org/2000/svg">
<path d="M2.301 84.615H4.329V89.88H2.301V84.615ZM1.053 90.946H5.577V83.549H1.053V90.946ZM9.412 82.262V86.838H8.073V82.483H6.812V93.442H8.073V87.93H9.412V93.988H10.686V82.262H9.412ZM22.294 82.249H20.955V88.216H22.294V82.249ZM14.143 85.291C14.143 84.355 14.897 83.744 15.911 83.744C16.938 83.744 17.705 84.355 17.705 85.291C17.705 86.227 16.938 86.838 15.911 86.838C14.897 86.838 14.143 86.227 14.143 85.291ZM19.005 85.291C19.005 83.744 17.692 82.639 15.911 82.639C14.143 82.639 12.843 83.744 12.843 85.291C12.843 86.838 14.143 87.93 15.911 87.93C17.692 87.93 19.005 86.838 19.005 85.291ZM15.937 92.805V91.765H22.294V88.749H14.598V89.802H20.968V90.777H14.624V93.858H22.645V92.805H15.937ZM26.219 84.615H28.247V89.88H26.219V84.615ZM24.971 90.946H29.495V83.549H24.971V90.946ZM33.33 82.262V86.838H31.991V82.483H30.73V93.442H31.991V87.93H33.33V93.988H34.604V82.262H33.33ZM46.212 82.249H44.873V88.216H46.212V82.249ZM38.061 85.291C38.061 84.355 38.815 83.744 39.829 83.744C40.856 83.744 41.623 84.355 41.623 85.291C41.623 86.227 40.856 86.838 39.829 86.838C38.815 86.838 38.061 86.227 38.061 85.291ZM42.923 85.291C42.923 83.744 41.61 82.639 39.829 82.639C38.061 82.639 36.761 83.744 36.761 85.291C36.761 86.838 38.061 87.93 39.829 87.93C41.61 87.93 42.923 86.838 42.923 85.291ZM39.855 92.805V91.765H46.212V88.749H38.516V89.802H44.886V90.777H38.542V93.858H46.563V92.805H39.855ZM52.0429 83.367V91.128H57.5549V83.367H52.0429ZM56.2419 84.433V90.049H53.3559V84.433H56.2419ZM59.7259 82.249V94.027H61.0779V82.249H59.7259ZM71.7628 90.998H73.1018V82.262H71.7628V83.9H69.5788V84.992H71.7628V86.253H69.5788V87.332H71.7628V90.998ZM70.2938 88.333C68.5388 87.657 67.5638 86.032 67.5638 84.368V82.912H66.1988V84.368C66.1988 86.136 65.1848 87.813 63.3518 88.489L64.0798 89.542C65.4188 89.009 66.3938 87.969 66.9008 86.643C67.3948 87.865 68.3178 88.866 69.5528 89.386L70.2938 88.333ZM66.8098 92.688V90.153H65.4578V93.78H73.3748V92.688H66.8098ZM85.4898 86.591C83.1238 86.253 81.3558 84.784 81.3558 83.263V82.639H79.9388V83.263C79.9388 84.81 78.1968 86.253 75.8048 86.591L76.3248 87.67C78.2748 87.358 79.8998 86.383 80.6538 85.018C81.4208 86.37 83.0198 87.358 84.9698 87.67L85.4898 86.591ZM85.9448 88.775H75.3368V89.867H79.9388V94.014H81.2778V89.867H85.9448V88.775ZM94.7318 86.422H95.9538V89.659H97.2278V82.249H95.9538V85.317H94.7318V82.47H93.4838V89.269H94.7318V86.422ZM93.0808 83.575H90.8188V82.366H89.5058V83.575H87.2308V84.628H93.0808V83.575ZM88.8558 87.163C88.8558 86.526 89.3758 86.11 90.1688 86.11C90.9488 86.11 91.4948 86.526 91.4948 87.163C91.4948 87.8 90.9488 88.216 90.1688 88.216C89.3758 88.216 88.8558 87.8 88.8558 87.163ZM92.6908 87.163C92.6908 85.954 91.6508 85.135 90.1688 85.135C88.6998 85.135 87.6598 85.954 87.6598 87.163C87.6598 88.385 88.6998 89.191 90.1688 89.191C91.6508 89.191 92.6908 88.385 92.6908 87.163ZM93.3278 92.987C91.6508 92.987 90.6888 92.61 90.6888 91.908C90.6888 91.206 91.6508 90.842 93.3278 90.842C95.0178 90.842 95.9538 91.206 95.9538 91.908C95.9538 92.61 95.0178 92.987 93.3278 92.987ZM93.3278 89.828C90.8448 89.828 89.3498 90.582 89.3498 91.908C89.3498 93.234 90.8448 94.001 93.3278 94.001C95.8108 94.001 97.2928 93.234 97.2928 91.908C97.2928 90.582 95.8108 89.828 93.3278 89.828Z" fill="#666666"/>
<path d="M30.928 62.64H28.8V73.424H30.928V62.64ZM27.872 70C25.472 69.344 24.4 67.696 24.4 66.08V66H27.36V64.336H24.4V62.72H22.288V64.336H19.312V66H22.288V66.08C22.288 67.808 21.232 69.536 18.832 70.256L19.824 71.888C21.536 71.392 22.72 70.32 23.376 68.976C24.064 70.208 25.216 71.184 26.896 71.648L27.872 70ZM23.232 75.44V72.48H21.12V77.12H31.296V75.44H23.232ZM46.7348 69.76H44.7988C45.1668 67.696 45.1668 66.192 45.1668 64.816V63.488H34.9428V65.184H43.1028C43.1028 66.448 43.0708 67.888 42.7028 69.76H33.4228V71.456H38.9268V77.376H41.0708V71.456H46.7348V69.76ZM52.9345 71.648C55.5745 71.296 57.4465 70.208 58.4225 68.704C59.3985 70.208 61.2705 71.296 63.9105 71.648L64.6625 69.984C61.3025 69.584 59.6865 67.936 59.5105 66.32H63.9425V64.64H59.4785V62.832H57.3665V64.64H52.9025V66.32H57.3345C57.1585 67.936 55.5425 69.584 52.1825 69.984L52.9345 71.648ZM59.4785 73.984V71.136H57.3665V73.984H51.7505V75.696H65.0945V73.984H59.4785ZM68.9653 66.048H72.3413V64.336H66.8853V74.064H67.9093C69.7973 74.064 71.3653 74 73.1573 73.664L72.9973 71.952C71.5893 72.208 70.3413 72.288 68.9653 72.32V66.048ZM77.1093 62.624V68.304H75.7812V62.912H73.8133V76.688H75.7812V70H77.1093V77.376H79.1093V62.624H77.1093Z" fill="black" fill-opacity="0.8"/>
<mask id="path-3-inside-1" fill="white">
<path d="M69.5879 29.198C72.7281 28.1179 75.3769 25.9478 77.0536 23.0814C78.7303 20.215 79.3236 16.8425 78.726 13.576C78.1283 10.3094 76.3792 7.36549 73.7962 5.27851C71.2132 3.19153 67.9675 2.09987 64.6484 2.20168C61.3292 2.3035 58.1565 3.59204 55.7063 5.83341C53.2561 8.07478 51.6907 11.1204 51.2944 14.4174C50.898 17.7144 51.697 21.0442 53.5462 23.8025C55.3954 26.5607 58.1723 28.5644 61.3728 29.45L61.8107 27.8671C58.989 27.0864 56.5407 25.3197 54.9103 22.8879C53.2799 20.4561 52.5755 17.5203 52.925 14.6134C53.2744 11.7066 54.6545 9.02135 56.8148 7.04521C58.9751 5.06907 61.7723 3.933 64.6987 3.84324C67.6251 3.75347 70.4867 4.71596 72.7641 6.55597C75.0414 8.39599 76.5835 10.9916 77.1105 13.8715C77.6374 16.7515 77.1143 19.725 75.636 22.2522C74.1577 24.7793 71.8223 26.6927 69.0537 27.645L69.5879 29.198Z"/>
</mask>
<path d="M69.5879 29.198C72.7281 28.1179 75.3769 25.9478 77.0536 23.0814C78.7303 20.215 79.3236 16.8425 78.726 13.576C78.1283 10.3094 76.3792 7.36549 73.7962 5.27851C71.2132 3.19153 67.9675 2.09987 64.6484 2.20168C61.3292 2.3035 58.1565 3.59204 55.7063 5.83341C53.2561 8.07478 51.6907 11.1204 51.2944 14.4174C50.898 17.7144 51.697 21.0442 53.5462 23.8025C55.3954 26.5607 58.1723 28.5644 61.3728 29.45L61.8107 27.8671C58.989 27.0864 56.5407 25.3197 54.9103 22.8879C53.2799 20.4561 52.5755 17.5203 52.925 14.6134C53.2744 11.7066 54.6545 9.02135 56.8148 7.04521C58.9751 5.06907 61.7723 3.933 64.6987 3.84324C67.6251 3.75347 70.4867 4.71596 72.7641 6.55597C75.0414 8.39599 76.5835 10.9916 77.1105 13.8715C77.6374 16.7515 77.1143 19.725 75.636 22.2522C74.1577 24.7793 71.8223 26.6927 69.0537 27.645L69.5879 29.198Z" stroke="black" stroke-width="4" mask="url(#path-3-inside-1)"/>
<path d="M61.5 29C61.5 29 56.683 27.4941 55 28C51.2136 29.1382 48.5 30 48.5 30M69.5 28.4999C69.5 28.4999 72.3017 28.5481 74 29C78.0383 30.0745 80.5 36.9999 80.5 36.9999" stroke="black" stroke-width="2" stroke-linecap="round" stroke-linejoin="round"/>
<circle cx="63.5" cy="11.5" r="1.5" fill="black"/>
<circle cx="71.5" cy="11.5" r="1.5" fill="black"/>
<path d="M63.5 17C63.5 17 65.8335 18.5769 67.5 18.5C68.9855 18.4314 71 17 71 17" stroke="black" stroke-width="2" stroke-linecap="round"/>
<circle cx="42" cy="18" r="13" fill="white"/>
<mask id="path-9-inside-2" fill="white">
<path d="M46.5879 31.198C49.7281 30.1179 52.3769 27.9478 54.0536 25.0814C55.7303 22.215 56.3236 18.8425 55.726 15.576C55.1283 12.3094 53.3792 9.36549 50.7962 7.27851C48.2132 5.19153 44.9675 4.09987 41.6484 4.20168C38.3292 4.3035 35.1565 5.59204 32.7063 7.83341C30.2561 10.0748 28.6907 13.1204 28.2944 16.4174C27.898 19.7144 28.697 23.0442 30.5462 25.8025C32.3954 28.5607 35.1723 30.5644 38.3728 31.45L38.8413 29.7566C36.046 28.9832 33.6206 27.2331 32.0055 24.8241C30.3904 22.415 29.6926 19.5067 30.0388 16.6271C30.385 13.7475 31.7522 11.0874 33.8922 9.12981C36.0322 7.17218 38.8032 6.04676 41.7022 5.95784C44.6012 5.86891 47.436 6.82238 49.692 8.64516C51.948 10.4679 53.4757 13.0392 53.9977 15.8922C54.5197 18.7452 54.0014 21.6908 52.537 24.1943C51.0726 26.6978 48.7591 28.5932 46.0164 29.5365L46.5879 31.198Z"/>
</mask>
<path d="M46.5879 31.198C49.7281 30.1179 52.3769 27.9478 54.0536 25.0814C55.7303 22.215 56.3236 18.8425 55.726 15.576C55.1283 12.3094 53.3792 9.36549 50.7962 7.27851C48.2132 5.19153 44.9675 4.09987 41.6484 4.20168C38.3292 4.3035 35.1565 5.59204 32.7063 7.83341C30.2561 10.0748 28.6907 13.1204 28.2944 16.4174C27.898 19.7144 28.697 23.0442 30.5462 25.8025C32.3954 28.5607 35.1723 30.5644 38.3728 31.45L38.8413 29.7566C36.046 28.9832 33.6206 27.2331 32.0055 24.8241C30.3904 22.415 29.6926 19.5067 30.0388 16.6271C30.385 13.7475 31.7522 11.0874 33.8922 9.12981C36.0322 7.17218 38.8032 6.04676 41.7022 5.95784C44.6012 5.86891 47.436 6.82238 49.692 8.64516C51.948 10.4679 53.4757 13.0392 53.9977 15.8922C54.5197 18.7452 54.0014 21.6908 52.537 24.1943C51.0726 26.6978 48.7591 28.5932 46.0164 29.5365L46.5879 31.198Z" stroke="black" stroke-width="4" mask="url(#path-9-inside-2)"/>
<path d="M38.5 31C38.5 31 35.683 30.4941 34 31C30.2136 32.1381 28.5 38.9999 28.5 38.9999M46.5 30.4999C46.5 30.4999 49.3017 30.5481 51 31C55.0383 32.0745 57.5 38.9999 57.5 38.9999" stroke="black" stroke-width="2" stroke-linecap="round" stroke-linejoin="round"/>
<circle cx="41.5" cy="13.5" r="1.5" fill="black"/>
<circle cx="49.5" cy="13.5" r="1.5" fill="black"/>
<path d="M41.5 19C41.5 19 43.8335 20.5769 45.5 20.5C46.9855 20.4314 49 19 49 19" stroke="black" stroke-width="2" stroke-linecap="round"/>
<path d="M22.5 20L25.5 23M19.5 26H24.5M20.5 33L24.5 30.5" stroke="black" stroke-width="2" stroke-linecap="round"/>
</svg>
