<svg width="28" height="28" viewBox="0 0 28 28" fill="none" xmlns="http://www.w3.org/2000/svg">
<path fill-rule="evenodd" clip-rule="evenodd" d="M18.6666 10.5C18.6666 11.7377 18.175 12.9247 17.2998 13.7999C16.4246 14.675 15.2377 15.1667 14 15.1667C12.7623 15.1667 11.5753 14.675 10.7001 13.7999C9.82498 12.9247 9.33331 11.7377 9.33331 10.5C9.33331 9.26236 9.82498 8.07538 10.7001 7.20021C11.5753 6.32504 12.7623 5.83337 14 5.83337C15.2377 5.83337 16.4246 6.32504 17.2998 7.20021C18.175 8.07538 18.6666 9.26236 18.6666 10.5ZM16.3333 10.5C16.3333 11.1189 16.0875 11.7124 15.6499 12.15C15.2123 12.5875 14.6188 12.8334 14 12.8334C13.3811 12.8334 12.7876 12.5875 12.3501 12.15C11.9125 11.7124 11.6666 11.1189 11.6666 10.5C11.6666 9.8812 11.9125 9.28771 12.3501 8.85013C12.7876 8.41254 13.3811 8.16671 14 8.16671C14.6188 8.16671 15.2123 8.41254 15.6499 8.85013C16.0875 9.28771 16.3333 9.8812 16.3333 10.5Z" fill="black"/>
<path fill-rule="evenodd" clip-rule="evenodd" d="M14 1.16669C6.91249 1.16669 1.16666 6.91252 1.16666 14C1.16666 21.0875 6.91249 26.8334 14 26.8334C21.0875 26.8334 26.8333 21.0875 26.8333 14C26.8333 6.91252 21.0875 1.16669 14 1.16669ZM3.49999 14C3.49999 16.4384 4.33182 18.683 5.72599 20.4657C6.70509 19.1799 7.96821 18.1379 9.41666 17.4211C10.8651 16.7042 12.4597 16.332 14.0758 16.3334C15.671 16.3318 17.2456 16.6945 18.6794 17.3936C20.1133 18.0927 21.3686 19.1099 22.3498 20.3677C23.3607 19.0419 24.0413 17.4944 24.3354 15.8534C24.6294 14.2123 24.5285 12.5248 24.0409 10.9305C23.5533 9.33619 22.6931 7.88091 21.5314 6.68506C20.3697 5.48922 18.9399 4.58719 17.3604 4.05361C15.7809 3.52004 14.0971 3.37025 12.4482 3.61666C10.7993 3.86306 9.23275 4.49856 7.87822 5.47058C6.52369 6.44261 5.4201 7.7232 4.65876 9.20642C3.89741 10.6896 3.5002 12.3328 3.49999 14ZM14 24.5C11.5896 24.5036 9.25197 23.6744 7.38266 22.1527C8.13508 21.0755 9.13655 20.1961 10.3019 19.5892C11.4672 18.9822 12.7619 18.6658 14.0758 18.6667C15.3733 18.6656 16.6524 18.9742 17.8067 19.5667C18.9611 20.1592 19.9574 21.0185 20.713 22.0734C18.8292 23.6445 16.453 24.5035 14 24.5Z" fill="black"/>
<circle cx="14" cy="10" r="3" fill="black"/>
<ellipse cx="14" cy="21.5" rx="7" ry="3.5" fill="black"/>
</svg>
