<svg width="16" height="16" viewBox="0 0 16 16" fill="none" xmlns="http://www.w3.org/2000/svg">
<path d="M4.92 14.7552C4.99741 14.8328 5.08937 14.8944 5.19061 14.9364C5.29185 14.9784 5.40039 15.0001 5.51 15.0001C5.61961 15.0001 5.72815 14.9784 5.82939 14.9364C5.93063 14.8944 6.02259 14.8328 6.1 14.7552L11.64 9.21524C11.7018 9.15357 11.7508 9.08031 11.7843 8.99966C11.8177 8.91901 11.835 8.83255 11.835 8.74524C11.835 8.65793 11.8177 8.57148 11.7843 8.49083C11.7508 8.41018 11.7018 8.33692 11.64 8.27524L6.1 2.73524C5.77333 2.40857 5.24666 2.40857 4.92 2.73524C4.59333 3.06191 4.59333 3.58857 4.92 3.91524L9.74667 8.74858L4.91333 13.5819C4.59333 13.9019 4.59333 14.4352 4.92 14.7552Z" fill="#888888"/>
</svg>
