<svg width="28" height="28" viewBox="0 0 28 28" fill="none" xmlns="http://www.w3.org/2000/svg">
<path fill-rule="evenodd" clip-rule="evenodd" d="M18.6668 10.3333C18.6668 11.571 18.1752 12.758 17.3 13.6332C16.4248 14.5083 15.2378 15 14.0002 15C12.7625 15 11.5755 14.5083 10.7003 13.6332C9.82516 12.758 9.3335 11.571 9.3335 10.3333C9.3335 9.09565 9.82516 7.90866 10.7003 7.03349C11.5755 6.15832 12.7625 5.66666 14.0002 5.66666C15.2378 5.66666 16.4248 6.15832 17.3 7.03349C18.1752 7.90866 18.6668 9.09565 18.6668 10.3333ZM16.3335 10.3333C16.3335 10.9522 16.0877 11.5457 15.6501 11.9832C15.2125 12.4208 14.619 12.6667 14.0002 12.6667C13.3813 12.6667 12.7878 12.4208 12.3502 11.9832C11.9127 11.5457 11.6668 10.9522 11.6668 10.3333C11.6668 9.71449 11.9127 9.12099 12.3502 8.68341C12.7878 8.24582 13.3813 7.99999 14.0002 7.99999C14.619 7.99999 15.2125 8.24582 15.6501 8.68341C16.0877 9.12099 16.3335 9.71449 16.3335 10.3333Z" fill="black"/>
<path fill-rule="evenodd" clip-rule="evenodd" d="M14.0003 1C6.91283 1 1.16699 6.74583 1.16699 13.8333C1.16699 20.9208 6.91283 26.6667 14.0003 26.6667C21.0878 26.6667 26.8337 20.9208 26.8337 13.8333C26.8337 6.74583 21.0878 1 14.0003 1ZM3.50033 13.8333C3.50033 16.2717 4.33216 18.5163 5.72633 20.299C6.70543 19.0132 7.96854 17.9712 9.417 17.2544C10.8655 16.5375 12.46 16.1653 14.0762 16.1667C15.6714 16.1652 17.2459 16.5278 18.6797 17.2269C20.1136 17.926 21.3689 18.9432 22.3502 20.201C23.361 18.8752 24.0416 17.3278 24.3357 15.6867C24.6298 14.0456 24.5288 12.3581 24.0412 10.7638C23.5536 9.16951 22.6934 7.71422 21.5317 6.51838C20.37 5.32253 18.9403 4.4205 17.3608 3.88693C15.7813 3.35335 14.0974 3.20357 12.4485 3.44997C10.7996 3.69637 9.23308 4.33187 7.87856 5.3039C6.52403 6.27592 5.42044 7.55652 4.65909 9.03973C3.89775 10.5229 3.50054 12.1661 3.50033 13.8333ZM14.0003 24.3333C11.5899 24.337 9.2523 23.5077 7.38299 21.986C8.13541 20.9089 9.13689 20.0294 10.3022 19.4225C11.4675 18.8155 12.7622 18.4991 14.0762 18.5C15.3737 18.499 16.6527 18.8075 17.8071 19.4C18.9614 19.9925 19.9578 20.8518 20.7133 21.9067C18.8295 23.4778 16.4533 24.3368 14.0003 24.3333Z" fill="black"/>
<circle cx="14" cy="10" r="3" fill="black"/>
<ellipse cx="14" cy="20.5" rx="7" ry="3.5" fill="black"/>
</svg>
