<svg width="59" height="60" viewBox="0 0 59 60" fill="none" xmlns="http://www.w3.org/2000/svg">
<path d="M6 8.5H1.5V1.5H58V8.5H54M6 8.5H54M6 8.5V32M6 53V32M54 8.5V32M54 53V32M13.5 16H17M19.5 16H46.5M54 32L50 24H10L6 32M54 32H6M1.5 53.5H58V58.5H1.5V53.5ZM10 12H50V20H10V12Z" stroke="black" stroke-width="2"/>
<mask id="path-2-inside-1" fill="white">
<path d="M15 33C15 34.3261 14.4732 35.5979 13.5355 36.5355C12.5979 37.4732 11.3261 38 10 38C8.67392 38 7.40215 37.4732 6.46447 36.5355C5.52678 35.5979 5 34.3261 5 33L6.79684 33C6.79684 33.8495 7.13432 34.6643 7.73503 35.265C8.33574 35.8657 9.15047 36.2032 10 36.2032C10.8495 36.2032 11.6643 35.8657 12.265 35.265C12.8657 34.6643 13.2032 33.8495 13.2032 33H15Z"/>
</mask>
<path d="M15 33C15 34.3261 14.4732 35.5979 13.5355 36.5355C12.5979 37.4732 11.3261 38 10 38C8.67392 38 7.40215 37.4732 6.46447 36.5355C5.52678 35.5979 5 34.3261 5 33L6.79684 33C6.79684 33.8495 7.13432 34.6643 7.73503 35.265C8.33574 35.8657 9.15047 36.2032 10 36.2032C10.8495 36.2032 11.6643 35.8657 12.265 35.265C12.8657 34.6643 13.2032 33.8495 13.2032 33H15Z" stroke="black" stroke-width="4" mask="url(#path-2-inside-1)"/>
<mask id="path-3-inside-2" fill="white">
<path d="M25 33C25 34.3261 24.4732 35.5979 23.5355 36.5355C22.5979 37.4732 21.3261 38 20 38C18.6739 38 17.4021 37.4732 16.4645 36.5355C15.5268 35.5979 15 34.3261 15 33L16.7968 33C16.7968 33.8495 17.1343 34.6643 17.735 35.265C18.3357 35.8657 19.1505 36.2032 20 36.2032C20.8495 36.2032 21.6643 35.8657 22.265 35.265C22.8657 34.6643 23.2032 33.8495 23.2032 33H25Z"/>
</mask>
<path d="M25 33C25 34.3261 24.4732 35.5979 23.5355 36.5355C22.5979 37.4732 21.3261 38 20 38C18.6739 38 17.4021 37.4732 16.4645 36.5355C15.5268 35.5979 15 34.3261 15 33L16.7968 33C16.7968 33.8495 17.1343 34.6643 17.735 35.265C18.3357 35.8657 19.1505 36.2032 20 36.2032C20.8495 36.2032 21.6643 35.8657 22.265 35.265C22.8657 34.6643 23.2032 33.8495 23.2032 33H25Z" stroke="black" stroke-width="4" mask="url(#path-3-inside-2)"/>
<mask id="path-4-inside-3" fill="white">
<path d="M35 33C35 34.3261 34.4732 35.5979 33.5355 36.5355C32.5979 37.4732 31.3261 38 30 38C28.6739 38 27.4021 37.4732 26.4645 36.5355C25.5268 35.5979 25 34.3261 25 33L26.7968 33C26.7968 33.8495 27.1343 34.6643 27.735 35.265C28.3357 35.8657 29.1505 36.2032 30 36.2032C30.8495 36.2032 31.6643 35.8657 32.265 35.265C32.8657 34.6643 33.2032 33.8495 33.2032 33H35Z"/>
</mask>
<path d="M35 33C35 34.3261 34.4732 35.5979 33.5355 36.5355C32.5979 37.4732 31.3261 38 30 38C28.6739 38 27.4021 37.4732 26.4645 36.5355C25.5268 35.5979 25 34.3261 25 33L26.7968 33C26.7968 33.8495 27.1343 34.6643 27.735 35.265C28.3357 35.8657 29.1505 36.2032 30 36.2032C30.8495 36.2032 31.6643 35.8657 32.265 35.265C32.8657 34.6643 33.2032 33.8495 33.2032 33H35Z" stroke="black" stroke-width="4" mask="url(#path-4-inside-3)"/>
<mask id="path-5-inside-4" fill="white">
<path d="M45 33C45 34.3261 44.4732 35.5979 43.5355 36.5355C42.5979 37.4732 41.3261 38 40 38C38.6739 38 37.4021 37.4732 36.4645 36.5355C35.5268 35.5979 35 34.3261 35 33L36.7968 33C36.7968 33.8495 37.1343 34.6643 37.735 35.265C38.3357 35.8657 39.1505 36.2032 40 36.2032C40.8495 36.2032 41.6643 35.8657 42.265 35.265C42.8657 34.6643 43.2032 33.8495 43.2032 33H45Z"/>
</mask>
<path d="M45 33C45 34.3261 44.4732 35.5979 43.5355 36.5355C42.5979 37.4732 41.3261 38 40 38C38.6739 38 37.4021 37.4732 36.4645 36.5355C35.5268 35.5979 35 34.3261 35 33L36.7968 33C36.7968 33.8495 37.1343 34.6643 37.735 35.265C38.3357 35.8657 39.1505 36.2032 40 36.2032C40.8495 36.2032 41.6643 35.8657 42.265 35.265C42.8657 34.6643 43.2032 33.8495 43.2032 33H45Z" stroke="black" stroke-width="4" mask="url(#path-5-inside-4)"/>
<mask id="path-6-inside-5" fill="white">
<path d="M54 33C54 34.3261 53.4732 35.5979 52.5355 36.5355C51.5979 37.4732 50.3261 38 49 38C47.6739 38 46.4021 37.4732 45.4645 36.5355C44.5268 35.5979 44 34.3261 44 33L45.7968 33C45.7968 33.8495 46.1343 34.6643 46.735 35.265C47.3357 35.8657 48.1505 36.2032 49 36.2032C49.8495 36.2032 50.6643 35.8657 51.265 35.265C51.8657 34.6643 52.2032 33.8495 52.2032 33H54Z"/>
</mask>
<path d="M54 33C54 34.3261 53.4732 35.5979 52.5355 36.5355C51.5979 37.4732 50.3261 38 49 38C47.6739 38 46.4021 37.4732 45.4645 36.5355C44.5268 35.5979 44 34.3261 44 33L45.7968 33C45.7968 33.8495 46.1343 34.6643 46.735 35.265C47.3357 35.8657 48.1505 36.2032 49 36.2032C49.8495 36.2032 50.6643 35.8657 51.265 35.265C51.8657 34.6643 52.2032 33.8495 52.2032 33H54Z" stroke="black" stroke-width="4" mask="url(#path-6-inside-5)"/>
<path d="M10 37.5V46H18V37.5M42 37.5V46H50V37.5M22 37.5V53M38 37.5V53" stroke="black" stroke-width="2" stroke-linecap="square"/>
<path d="M18 24.5L15 32M42 24.5L44.5 32M25.5 24.5V32M34.5 24.5V31.5" stroke="black" stroke-width="2"/>
</svg>
