<svg width="58" height="62" viewBox="0 0 58 62" fill="none" xmlns="http://www.w3.org/2000/svg">
<path fill-rule="evenodd" clip-rule="evenodd" d="M52.8961 35.3802L24.0428 51.2638L25.1255 52.9037L24.6966 53.1869L53.8606 37.1322C58.6929 34.4721 58.6929 27.5279 53.8606 24.8678L51.2772 23.4456L50.3821 25.2359L52.8961 26.6198C56.3477 28.52 56.3477 33.48 52.8961 35.3802ZM48.4216 24.1567L49.3168 22.3664L47.3564 21.2873L46.4612 23.0775L48.4216 24.1567ZM44.5008 21.9983L23.9166 10.6668L24.8118 8.8765L45.396 20.2081L44.5008 21.9983ZM20.1124 53.4275L22.0776 52.3456L23.1831 54.0201L21.2179 55.1019L20.1124 53.4275ZM18.1472 54.5093L19.2527 56.1837L10.8758 60.7952C6.21055 63.3634 0.499997 59.9884 0.499997 54.663L0.5 7.33701C0.5 2.01161 6.21055 -1.3634 10.8758 1.20479L18.9305 5.63892L18.0354 7.42917L9.91127 2.95686C6.57896 1.12243 2.5 3.53316 2.5 7.33701L2.5 54.663C2.5 58.4668 6.57896 60.8776 9.91126 59.0431L18.1472 54.5093ZM21.9562 9.58756L22.8513 7.79731L20.8909 6.71811L19.9958 8.50837L21.9562 9.58756Z" fill="black"/>
<path d="M4 3L45 40.5M42.5 19.5L3 57.5" stroke="black" stroke-width="2"/>
</svg>
