<svg width="58" height="59" viewBox="0 0 58 59" fill="none" xmlns="http://www.w3.org/2000/svg">
<circle cx="29" cy="30" r="28" stroke="black" stroke-width="2"/>
<circle cx="29" cy="30" r="19" stroke="black" stroke-width="2"/>
<path d="M34.5 58V1.50002C34.5 1.50002 38 1.34617 38.5 1.50002C40.8754 2.23094 43 6.00002 43 6.00002V31C42.3394 32.3497 41.827 32.9409 40.5 33.5V58H34.5Z" fill="#FFD200"/>
<path d="M18 58L20.5 25.5C20.5 25.5 18.6048 25.3899 17.5 25C15.6587 24.3501 14.5 21 14.5 21V7L16 1.50002H18.5L20 15C20 15 21 1.50004 23 1.50002C25 1.5 25.5 15 25.5 15L26.5 1.50002H29L30.5 7V21C30.5 21 29.3413 24.3501 27.5 25C26.3952 25.3899 24.5 25.5 24.5 25.5L27 58H18Z" fill="#FFD200"/>
<path d="M38.5 11.5V26M38.5 28V30M34.5 1.50002V58H40.5V33.5C41.827 32.9409 42.3394 32.3497 43 31V6.00002C43 6.00002 40.8754 2.23094 38.5 1.50002C38 1.34617 34.5 1.50002 34.5 1.50002ZM20.5 25.5L18 58H27L24.5 25.5C24.5 25.5 26.3952 25.3899 27.5 25C29.3413 24.3501 30.5 21 30.5 21V7L29 1.50002H26.5L25.5 15C25.5 15 25 1.5 23 1.50002C21 1.50004 20 15 20 15L18.5 1.50002H16L14.5 7V21C14.5 21 15.6587 24.3501 17.5 25C18.6048 25.3899 20.5 25.5 20.5 25.5Z" stroke="black" stroke-width="2"/>
</svg>
