<svg width="60" height="60" viewBox="0 0 60 60" fill="none" xmlns="http://www.w3.org/2000/svg">
<path d="M21 29.5H1V1H59V29.5H45M21 24.5H12C11.3646 21.3112 10.3629 20.3579 7.5 20V10C10.8399 9.66727 11.6567 8.52794 12 5.5H44.5C45.3265 8.57998 46.4979 9.5969 49.5 10.5V20C46.7242 20.7374 45.683 21.6686 45 24.5" stroke="black" stroke-width="2"/>
<mask id="path-2-inside-1" fill="white">
<path d="M37.5502 18.6447C37.9643 17.4627 38.095 16.1999 37.9319 14.958C37.7687 13.7162 37.3163 12.53 36.611 11.495C35.9057 10.46 34.9672 9.60502 33.8711 8.99895C32.775 8.39288 31.5519 8.05265 30.3003 8.00564C29.0487 7.95863 27.8035 8.20615 26.665 8.72828C25.5265 9.25041 24.5266 10.0326 23.7456 11.0118C22.9646 11.991 22.4245 13.1399 22.1687 14.366C21.9128 15.592 21.9485 16.8611 22.2727 18.0709L24.1848 17.5585C23.9408 16.648 23.914 15.693 24.1065 14.7703C24.299 13.8476 24.7055 12.983 25.2932 12.2461C25.8809 11.5092 26.6335 10.9206 27.4902 10.5276C28.347 10.1347 29.2841 9.94842 30.226 9.9838C31.1679 10.0192 32.0883 10.2752 32.9132 10.7313C33.7381 11.1874 34.4443 11.8308 34.9751 12.6097C35.5059 13.3887 35.8464 14.2813 35.9692 15.2159C36.0919 16.1504 35.9935 17.1007 35.6819 17.9903L37.5502 18.6447Z"/>
</mask>
<path d="M37.5502 18.6447C37.9643 17.4627 38.095 16.1999 37.9319 14.958C37.7687 13.7162 37.3163 12.53 36.611 11.495C35.9057 10.46 34.9672 9.60502 33.8711 8.99895C32.775 8.39288 31.5519 8.05265 30.3003 8.00564C29.0487 7.95863 27.8035 8.20615 26.665 8.72828C25.5265 9.25041 24.5266 10.0326 23.7456 11.0118C22.9646 11.991 22.4245 13.1399 22.1687 14.366C21.9128 15.592 21.9485 16.8611 22.2727 18.0709L24.1848 17.5585C23.9408 16.648 23.914 15.693 24.1065 14.7703C24.299 13.8476 24.7055 12.983 25.2932 12.2461C25.8809 11.5092 26.6335 10.9206 27.4902 10.5276C28.347 10.1347 29.2841 9.94842 30.226 9.9838C31.1679 10.0192 32.0883 10.2752 32.9132 10.7313C33.7381 11.1874 34.4443 11.8308 34.9751 12.6097C35.5059 13.3887 35.8464 14.2813 35.9692 15.2159C36.0919 16.1504 35.9935 17.1007 35.6819 17.9903L37.5502 18.6447Z" stroke="black" stroke-width="4" mask="url(#path-2-inside-1)"/>
<path d="M19 59V52H42.5V59H19Z" stroke="black" stroke-width="2"/>
<path d="M17 30V44L21 51.5M39.5 51.5L43 47V26.5L41.5 23.5H38.5M38.5 35V21.5L36.5 19.5H34M33 35V18.5C33 18.5 32.0831 16.7166 31 16.5C29.6193 16.2239 28 18.5 28 18.5V19.5M28 34V19.5M28 19.5H25L23 21.5V36" stroke="black" stroke-width="2"/>
</svg>
