<svg width="103" height="146" viewBox="0 0 103 146" fill="none" xmlns="http://www.w3.org/2000/svg">
<path d="M49.324 0C38.1662 -1.33055e-07 27.4654 4.43241 19.5757 12.3221C11.6859 20.2119 7.25354 30.9126 7.25354 42.0704C7.25354 53.2282 11.6859 63.929 19.5757 71.8187C27.4654 79.7084 38.1662 84.1408 49.324 84.1408L49.324 59.3633C44.7376 59.3633 40.3391 57.5414 37.096 54.2983C33.853 51.0553 32.0311 46.6568 32.0311 42.0704C32.0311 37.4841 33.853 33.0855 37.096 29.8425C40.3391 26.5994 44.7376 24.7775 49.324 24.7775V0Z" fill="black"/>
<path d="M60.9296 145.07C72.0873 145.07 82.7881 140.638 90.6779 132.748C98.5676 124.859 103 114.158 103 103C103 91.8422 98.5676 81.1414 90.6779 73.2517C82.7881 65.362 72.0874 60.9296 60.9296 60.9296L60.9296 85.7071C65.516 85.7071 69.9145 87.529 73.1575 90.7721C76.4006 94.0151 78.2225 98.4136 78.2225 103C78.2225 107.586 76.4006 111.985 73.1575 115.228C69.9145 118.471 65.5159 120.293 60.9296 120.293L60.9296 145.07Z" fill="black"/>
<path d="M7.26513 113.673C11.9074 113.673 14.1589 111.352 14.1589 108.636C14.1589 102.671 4.71189 104.737 4.71189 101.742C4.71189 100.721 5.5707 99.8854 7.79899 99.8854C9.23808 99.8854 10.7932 100.303 12.302 101.162L13.4625 98.307C11.9538 97.3554 9.86479 96.8679 7.8222 96.8679C3.20315 96.8679 0.974873 99.1658 0.974873 101.928C0.974873 107.963 10.4219 105.874 10.4219 108.915C10.4219 109.913 9.51662 110.655 7.28834 110.655C5.33859 110.655 3.296 109.959 1.92654 108.961L0.649915 111.793C2.08901 112.907 4.68868 113.673 7.26513 113.673ZM20.4653 110.377V106.617H28.0089V103.692H20.4653V100.164H29.007V97.1465H16.7283V113.394H29.3088V110.377H20.4653ZM46.6916 113.394L43.0475 108.172C45.1597 107.267 46.3899 105.479 46.3899 103.042C46.3899 99.398 43.6742 97.1465 39.3337 97.1465H32.3007V113.394H36.0609V108.868H39.3337H39.5194L42.6529 113.394H46.6916ZM42.5832 103.042C42.5832 104.806 41.4227 105.874 39.1248 105.874H36.0609V100.21H39.1248C41.4227 100.21 42.5832 101.255 42.5832 103.042ZM49.3691 113.394H53.1293V97.1465H49.3691V113.394Z" fill="black"/>
</svg>
