<svg width="92" height="167" viewBox="0 0 92 167" fill="none" xmlns="http://www.w3.org/2000/svg">
<path d="M42 0C34.3087 -9.17176e-08 26.9325 3.05535 21.4939 8.4939C16.0553 13.9325 13 21.3087 13 29C13 36.6913 16.0553 44.0675 21.4939 49.5061C26.9325 54.9446 34.3087 58 42 58L42 40.9204C38.8385 40.9204 35.8065 39.6645 33.571 37.429C31.3355 35.1935 30.0796 32.1615 30.0796 29C30.0796 25.8385 31.3355 22.8065 33.571 20.571C35.8065 18.3355 38.8385 17.0796 42 17.0796V0Z" fill="black"/>
<path d="M50 100C57.6913 100 65.0675 96.9447 70.5061 91.5061C75.9447 86.0675 79 78.6913 79 71C79 63.3087 75.9447 55.9325 70.5061 50.4939C65.0675 45.0554 57.6913 42 50 42L50 59.0796C53.1615 59.0796 56.1935 60.3355 58.429 62.571C60.6645 64.8065 61.9204 67.8385 61.9204 71C61.9204 74.1615 60.6645 77.1935 58.429 79.429C56.1935 81.6645 53.1615 82.9204 50 82.9204L50 100Z" fill="black"/>
<path d="M13.008 79.192C16.208 79.192 17.76 77.592 17.76 75.72C17.76 71.608 11.248 73.032 11.248 70.968C11.248 70.264 11.84 69.688 13.376 69.688C14.368 69.688 15.44 69.976 16.48 70.568L17.28 68.6C16.24 67.944 14.8 67.608 13.392 67.608C10.208 67.608 8.672 69.192 8.672 71.096C8.672 75.256 15.184 73.816 15.184 75.912C15.184 76.6 14.56 77.112 13.024 77.112C11.68 77.112 10.272 76.632 9.328 75.944L8.448 77.896C9.44 78.664 11.232 79.192 13.008 79.192ZM22.1071 76.92V74.328H27.3071V72.312H22.1071V69.88H27.9951V67.8H19.5311V79H28.2031V76.92H22.1071ZM40.1855 79L37.6735 75.4C39.1295 74.776 39.9775 73.544 39.9775 71.864C39.9775 69.352 38.1055 67.8 35.1135 67.8H30.2655V79H32.8575V75.88H35.1135H35.2415L37.4015 79H40.1855ZM37.3535 71.864C37.3535 73.08 36.5535 73.816 34.9695 73.816H32.8575V69.912H34.9695C36.5535 69.912 37.3535 70.632 37.3535 71.864ZM42.0311 79H44.6231V67.8H42.0311V79Z" fill="black"/>
<path d="M13.25 116.95C13.7167 116.95 14.1333 117.067 14.5 117.3C14.9 117.533 15.1 117.917 15.1 118.45V126.7C15.1 127.767 15.15 128.733 15.25 129.6C15.35 130.433 15.5167 131.217 15.75 131.95C16.0167 132.683 16.35 133.4 16.75 134.1C17.1833 134.8 17.7167 135.517 18.35 136.25C19.3167 137.417 20.25 138.517 21.15 139.55C22.0833 140.55 22.9333 141.467 23.7 142.3C24 142.633 24.1333 143.033 24.1 143.5C24.0667 143.933 23.8833 144.3 23.55 144.6C23.25 144.867 22.8833 145.017 22.45 145.05C22.0167 145.05 21.6167 144.867 21.25 144.5C20.65 143.933 19.9333 143.2 19.1 142.3C18.3 141.367 17.4667 140.383 16.6 139.35C15.3333 137.917 14.4833 136.8 14.05 136C13.65 135.2 13.4167 134.533 13.35 134H13.3C13.2333 134.267 13.1333 134.567 13 134.9C12.9 135.233 12.7167 135.617 12.45 136.05C12.2167 136.45 11.9 136.933 11.5 137.5C11.1 138.067 10.5833 138.717 9.95 139.45C9.08333 140.483 8.2 141.5 7.3 142.5C6.43333 143.467 5.56667 144.4 4.7 145.3C4.33333 145.667 3.91667 145.833 3.45 145.8C2.98333 145.733 2.61667 145.567 2.35 145.3C2.01667 145 1.81667 144.633 1.75 144.2C1.71667 143.733 1.86667 143.317 2.2 142.95C3.2 141.883 4.2 140.8 5.2 139.7C6.23333 138.567 7.23333 137.417 8.2 136.25C8.83333 135.517 9.35 134.8 9.75 134.1C10.1833 133.4 10.5167 132.683 10.75 131.95C11.0167 131.217 11.2 130.433 11.3 129.6C11.4 128.733 11.45 127.767 11.45 126.7V118.45C11.45 117.917 11.6333 117.533 12 117.3C12.3667 117.067 12.7833 116.95 13.25 116.95ZM38.7 114.3C39.1667 114.3 39.5667 114.417 39.9 114.65C40.2667 114.883 40.45 115.25 40.45 115.75V155.65C40.45 156.15 40.2667 156.517 39.9 156.75C39.5667 156.983 39.1667 157.1 38.7 157.1C38.2667 157.1 37.8667 156.983 37.5 156.75C37.1667 156.517 37 156.15 37 155.65V115.75C37 115.25 37.1667 114.883 37.5 114.65C37.8667 114.417 38.2667 114.3 38.7 114.3ZM29.9 114.8C30.3333 114.8 30.7167 114.917 31.05 115.15C31.4167 115.383 31.6 115.75 31.6 116.25V153.55C31.6 154.05 31.4167 154.417 31.05 154.65C30.7167 154.883 30.3333 155 29.9 155C29.4333 155 29.0167 154.883 28.65 154.65C28.3167 154.417 28.15 154.05 28.15 153.55V131.25H21.85C21.3833 131.25 21.05 131.1 20.85 130.8C20.65 130.5 20.55 130.117 20.55 129.65C20.55 129.217 20.65 128.85 20.85 128.55C21.05 128.217 21.3833 128.05 21.85 128.05H28.15V116.25C28.15 115.75 28.3167 115.383 28.65 115.15C29.0167 114.917 29.4333 114.8 29.9 114.8ZM67.0578 117.45C68.3578 117.45 69.2578 117.7 69.7578 118.2C70.2578 118.667 70.5078 119.533 70.5078 120.8V130.05C70.5078 131.317 70.2578 132.2 69.7578 132.7C69.2578 133.167 68.3578 133.4 67.0578 133.4H55.0578C54.4245 133.4 54.1078 133.7 54.1078 134.3V142.55C54.1078 143.15 54.4245 143.45 55.0578 143.45C58.9911 143.45 62.5245 143.367 65.6578 143.2C68.8245 143 71.8911 142.683 74.8578 142.25C75.2578 142.183 75.5911 142.283 75.8578 142.55C76.1245 142.817 76.2911 143.167 76.3578 143.6C76.4245 144.067 76.3578 144.483 76.1578 144.85C75.9911 145.183 75.7078 145.383 75.3078 145.45C74.0078 145.617 72.6245 145.783 71.1578 145.95C69.7245 146.083 68.1411 146.2 66.4078 146.3C64.6745 146.4 62.7911 146.483 60.7578 146.55C58.7245 146.583 56.4578 146.6 53.9578 146.6C52.6578 146.6 51.7578 146.367 51.2578 145.9C50.7578 145.4 50.5078 144.517 50.5078 143.25V133.7C50.5078 132.433 50.7578 131.567 51.2578 131.1C51.7578 130.6 52.6578 130.35 53.9578 130.35H65.9578C66.5911 130.35 66.9078 130.033 66.9078 129.4V121.5C66.9078 120.9 66.5911 120.6 65.9578 120.6H51.7578C51.3245 120.6 51.0078 120.45 50.8078 120.15C50.6078 119.85 50.5078 119.467 50.5078 119C50.5078 118.567 50.6078 118.2 50.8078 117.9C51.0078 117.6 51.3245 117.45 51.7578 117.45H67.0578ZM82.6578 114.3C83.1245 114.3 83.5411 114.417 83.9078 114.65C84.3078 114.883 84.5078 115.267 84.5078 115.8V155.6C84.5078 156.133 84.3078 156.517 83.9078 156.75C83.5411 156.983 83.1245 157.1 82.6578 157.1C82.1911 157.1 81.7745 156.983 81.4078 156.75C81.0411 156.517 80.8578 156.133 80.8578 155.6V115.8C80.8578 115.267 81.0411 114.883 81.4078 114.65C81.7745 114.417 82.1911 114.3 82.6578 114.3Z" fill="black"/>
</svg>
