<svg width="290" height="243" viewBox="0 0 290 243" fill="none" xmlns="http://www.w3.org/2000/svg">
<mask id="path-1-inside-1" fill="white">
<path d="M264.813 144.449C270.502 114.872 265.002 84.2355 249.381 58.4837C233.759 32.732 209.129 13.7005 180.27 5.08126C151.41 -3.53803 120.377 -1.13065 93.1918 11.8364C66.0066 24.8034 44.6067 47.4057 33.1435 75.2585L36.4351 76.6132C47.5624 49.5764 68.3354 27.6363 94.7243 15.0491C121.113 2.46195 151.237 0.125093 179.251 8.49187C207.265 16.8586 231.174 35.3326 246.337 60.3299C261.501 85.3272 266.84 115.066 261.318 143.777L264.813 144.449Z"/>
</mask>
<path d="M264.813 144.449C270.502 114.872 265.002 84.2355 249.381 58.4837C233.759 32.732 209.129 13.7005 180.27 5.08126C151.41 -3.53803 120.377 -1.13065 93.1918 11.8364C66.0066 24.8034 44.6067 47.4057 33.1435 75.2585L36.4351 76.6132C47.5624 49.5764 68.3354 27.6363 94.7243 15.0491C121.113 2.46195 151.237 0.125093 179.251 8.49187C207.265 16.8586 231.174 35.3326 246.337 60.3299C261.501 85.3272 266.84 115.066 261.318 143.777L264.813 144.449Z" stroke="#FFD200" stroke-width="6" stroke-linecap="round" mask="url(#path-1-inside-1)"/>
<path d="M240 121L264 145.5L288.5 121" stroke="#FFD200" stroke-width="3" stroke-linecap="round"/>
<mask id="path-3-inside-2" fill="white">
<path d="M25.687 98.5511C19.998 128.128 25.4977 158.765 41.1193 184.516C56.7408 210.268 81.3705 229.299 110.23 237.919C139.09 246.538 170.123 244.131 197.308 231.164C224.493 218.197 245.893 195.594 257.356 167.741L254.065 166.387C242.938 193.424 222.165 215.364 195.776 227.951C169.387 240.538 139.263 242.875 111.249 234.508C83.2346 226.141 59.3265 207.667 44.1626 182.67C28.9987 157.673 23.6601 127.934 29.1824 99.2234L25.687 98.5511Z"/>
</mask>
<path d="M25.687 98.5511C19.998 128.128 25.4977 158.765 41.1193 184.516C56.7408 210.268 81.3705 229.299 110.23 237.919C139.09 246.538 170.123 244.131 197.308 231.164C224.493 218.197 245.893 195.594 257.356 167.741L254.065 166.387C242.938 193.424 222.165 215.364 195.776 227.951C169.387 240.538 139.263 242.875 111.249 234.508C83.2346 226.141 59.3265 207.667 44.1626 182.67C28.9987 157.673 23.6601 127.934 29.1824 99.2234L25.687 98.5511Z" stroke="#FFD200" stroke-width="6" stroke-linecap="round" mask="url(#path-3-inside-2)"/>
<path d="M50.5 122L26.5 97.5L2 122" stroke="#FFD200" stroke-width="3" stroke-linecap="round"/>
<path d="M142.896 34.08V35.344H139.632V36.928H142.896V38.032H145.008V30.64H142.896V32.496H140.192C140.256 32.08 140.288 31.648 140.288 31.2H133.712V32.88H137.968C137.712 34.608 136.208 36.016 132.864 36.672L133.568 38.368C136.8 37.664 138.88 36.272 139.776 34.08H142.896ZM137.424 43.568V42.64H145.008V38.576H135.296V40.24H142.896V41.072H135.312V45.232H145.312V43.568H137.424ZM155.215 38.944C155.615 36.512 155.615 34.72 155.615 33.296V32.096H148.031V33.776H153.535C153.535 35.088 153.487 36.672 153.151 38.768L155.215 38.944ZM151.999 36.32H149.919V40.672C148.991 40.688 148.095 40.688 147.279 40.688L147.471 42.416C150.031 42.4 153.327 42.336 156.319 41.824L156.207 40.304C154.863 40.464 153.423 40.56 151.999 40.608V36.32ZM160.975 36.56H158.991V30.624H156.879V45.36H158.991V38.32H160.975V36.56Z" fill="black" fill-opacity="0.6"/>
<path d="M128.646 205.308C130.758 205.308 132.496 204.472 133.838 202.91L132.122 200.886C131.242 201.832 130.142 202.492 128.756 202.492C126.182 202.492 124.51 200.358 124.51 196.816C124.51 193.318 126.358 191.206 128.822 191.206C130.054 191.206 131 191.778 131.814 192.57L133.53 190.502C132.474 189.402 130.824 188.412 128.756 188.412C124.642 188.412 121.188 191.558 121.188 196.926C121.188 202.36 124.532 205.308 128.646 205.308ZM139.233 205.308C140.641 205.308 141.873 204.604 142.951 203.68H143.017L143.259 205H145.899V197.806C145.899 194.242 144.293 192.372 141.169 192.372C139.233 192.372 137.473 193.098 136.021 194L137.187 196.134C138.331 195.474 139.431 194.968 140.575 194.968C142.093 194.968 142.621 195.892 142.665 197.102C137.715 197.63 135.581 199.016 135.581 201.656C135.581 203.746 137.033 205.308 139.233 205.308ZM140.289 202.778C139.343 202.778 138.661 202.36 138.661 201.392C138.661 200.292 139.673 199.478 142.665 199.082V201.568C141.895 202.338 141.213 202.778 140.289 202.778ZM152.715 205.308C155.927 205.308 157.621 203.57 157.621 201.414C157.621 199.126 155.817 198.312 154.189 197.696C152.891 197.212 151.681 196.882 151.681 195.98C151.681 195.276 152.209 194.792 153.309 194.792C154.233 194.792 155.091 195.232 155.971 195.848L157.423 193.89C156.389 193.12 155.025 192.372 153.221 192.372C150.449 192.372 148.645 193.934 148.645 196.156C148.645 198.202 150.449 199.148 152.011 199.742C153.309 200.248 154.585 200.666 154.585 201.59C154.585 202.36 154.035 202.888 152.803 202.888C151.659 202.888 150.603 202.404 149.503 201.546L148.029 203.57C149.239 204.582 151.065 205.308 152.715 205.308ZM160.088 205H163.3V196.53C164.224 195.628 164.862 195.144 165.874 195.144C167.084 195.144 167.612 195.826 167.612 197.718V205H170.846V197.322C170.846 194.22 169.702 192.372 167.04 192.372C165.368 192.372 164.158 193.252 163.168 194.176L163.3 191.866V187.444H160.088V205Z" fill="black"/>
<path d="M87.484 84.192L94.568 77.504C98.88 73.5 99.716 70.772 99.716 67.78C99.716 62.192 95.14 58.672 88.276 58.672C82.732 58.672 78.42 60.916 76.044 64.392L81.236 67.736C82.732 65.668 84.976 64.656 87.616 64.656C90.872 64.656 92.544 66.064 92.544 68.484C92.544 69.98 92.06 71.564 89.332 74.16L77.452 85.38V90H100.728V84.192H87.484ZM124.745 73.808C127.033 72.4 128.353 70.244 128.353 67.472C128.353 62.06 123.513 58.672 116.429 58.672C109.433 58.672 104.593 62.06 104.593 67.472C104.593 70.244 105.869 72.4 108.157 73.808C105.209 75.304 103.493 77.768 103.493 81.068C103.493 86.876 108.641 90.528 116.429 90.528C124.261 90.528 129.453 86.876 129.453 81.068C129.453 77.768 127.737 75.304 124.745 73.808ZM116.429 63.908C119.333 63.908 121.269 65.36 121.269 67.78C121.269 70.112 119.377 71.564 116.429 71.564C113.525 71.564 111.677 70.112 111.677 67.78C111.677 65.36 113.569 63.908 116.429 63.908ZM116.429 85.292C112.909 85.292 110.709 83.576 110.709 80.848C110.709 78.12 112.909 76.448 116.429 76.448C119.993 76.448 122.237 78.12 122.237 80.848C122.237 83.576 119.993 85.292 116.429 85.292ZM133.376 86.652C132.386 86.652 131.63 87.336 131.63 88.38C131.63 89.118 132.008 89.676 132.602 89.91L131.81 92.772H133.592L134.618 90.18C135.032 89.19 135.104 88.848 135.104 88.38C135.104 87.354 134.384 86.652 133.376 86.652ZM150.627 90.528C158.239 90.528 163.827 84.764 163.827 74.6C163.827 64.436 158.239 58.672 150.627 58.672C143.059 58.672 137.427 64.436 137.427 74.6C137.427 84.764 143.059 90.528 150.627 90.528ZM150.627 84.5C147.107 84.5 144.643 81.596 144.643 74.6C144.643 67.604 147.107 64.7 150.627 64.7C154.191 64.7 156.655 67.604 156.655 74.6C156.655 81.596 154.191 84.5 150.627 84.5ZM176.8 84.192L183.884 77.504C188.196 73.5 189.032 70.772 189.032 67.78C189.032 62.192 184.456 58.672 177.592 58.672C172.048 58.672 167.736 60.916 165.36 64.392L170.552 67.736C172.048 65.668 174.292 64.656 176.932 64.656C180.188 64.656 181.86 66.064 181.86 68.484C181.86 69.98 181.376 71.564 178.648 74.16L166.768 85.38V90H190.044V84.192H176.8ZM206.1 90.528C213.712 90.528 219.3 84.764 219.3 74.6C219.3 64.436 213.712 58.672 206.1 58.672C198.532 58.672 192.9 64.436 192.9 74.6C192.9 84.764 198.532 90.528 206.1 90.528ZM206.1 84.5C202.58 84.5 200.116 81.596 200.116 74.6C200.116 67.604 202.58 64.7 206.1 64.7C209.664 64.7 212.128 67.604 212.128 74.6C212.128 81.596 209.664 84.5 206.1 84.5Z" fill="black"/>
<path d="M109.92 159.724H104.904V153.96H98.172V159.724H89.9L103.364 141.2H95.884L81.364 160.736V165.532H97.952V172H104.904V165.532H109.92V159.724ZM110.627 141.2V146.92H116.787V172H123.915V141.2H110.627ZM131.025 168.652C130.035 168.652 129.279 169.336 129.279 170.38C129.279 171.118 129.657 171.676 130.251 171.91L129.459 174.772H131.241L132.267 172.18C132.681 171.19 132.753 170.848 132.753 170.38C132.753 169.354 132.033 168.652 131.025 168.652ZM149.914 153.74L156.866 145.82V141.2H135.306V146.92H148.418L142.082 154.092V158.8H145.338C149.386 158.8 151.102 160.252 151.102 162.584C151.102 165.092 148.902 166.544 145.338 166.544C142.126 166.544 138.87 165.532 136.538 163.772L133.766 169.228C136.758 171.34 141.202 172.528 145.514 172.528C154.27 172.528 158.274 167.776 158.274 162.584C158.274 158.052 155.458 154.62 149.914 153.74ZM183.741 155.808C186.029 154.4 187.349 152.244 187.349 149.472C187.349 144.06 182.509 140.672 175.425 140.672C168.429 140.672 163.589 144.06 163.589 149.472C163.589 152.244 164.865 154.4 167.153 155.808C164.205 157.304 162.489 159.768 162.489 163.068C162.489 168.876 167.637 172.528 175.425 172.528C183.257 172.528 188.449 168.876 188.449 163.068C188.449 159.768 186.733 157.304 183.741 155.808ZM175.425 145.908C178.329 145.908 180.265 147.36 180.265 149.78C180.265 152.112 178.373 153.564 175.425 153.564C172.521 153.564 170.673 152.112 170.673 149.78C170.673 147.36 172.565 145.908 175.425 145.908ZM175.425 167.292C171.905 167.292 169.705 165.576 169.705 162.848C169.705 160.12 171.905 158.448 175.425 158.448C178.989 158.448 181.233 160.12 181.233 162.848C181.233 165.576 178.989 167.292 175.425 167.292ZM202.58 166.192L209.664 159.504C213.976 155.5 214.812 152.772 214.812 149.78C214.812 144.192 210.236 140.672 203.372 140.672C197.828 140.672 193.516 142.916 191.14 146.392L196.332 149.736C197.828 147.668 200.072 146.656 202.712 146.656C205.968 146.656 207.64 148.064 207.64 150.484C207.64 151.98 207.156 153.564 204.428 156.16L192.548 167.38V172H215.824V166.192H202.58Z" fill="black"/>
<path d="M148.156 120.445C148.156 120.883 148.242 121.266 148.414 121.594C148.602 121.937 148.844 122.227 149.141 122.461C149.453 122.695 149.812 122.875 150.219 123C150.641 123.125 151.094 123.187 151.578 123.187L151.578 125.695C150.734 125.695 149.945 125.586 149.211 125.367C148.477 125.148 147.836 124.82 147.289 124.383C146.742 123.945 146.312 123.391 146 122.719C145.687 122.062 145.531 121.289 145.531 120.398C145.531 119.789 145.617 119.227 145.789 118.711C145.961 118.211 146.172 117.742 146.422 117.305C146.672 116.867 146.945 116.453 147.242 116.062C147.555 115.672 147.836 115.289 148.086 114.914C148.336 114.539 148.547 114.164 148.719 113.789C148.891 113.43 148.977 113.047 148.977 112.641C148.977 111.797 148.656 111.125 148.016 110.625C147.375 110.141 146.562 109.898 145.578 109.898L145.578 107.391C146.422 107.391 147.211 107.5 147.945 107.719C148.68 107.937 149.32 108.266 149.867 108.703C150.414 109.156 150.844 109.711 151.156 110.367C151.469 111.039 151.625 111.812 151.625 112.687C151.625 113.594 151.445 114.391 151.086 115.078C150.727 115.781 150.328 116.43 149.891 117.023C149.453 117.617 149.055 118.187 148.695 118.734C148.336 119.281 148.156 119.852 148.156 120.445Z" fill="black"/>
</svg>
