<svg width="121" height="115" viewBox="0 0 121 115" fill="none" xmlns="http://www.w3.org/2000/svg">
<g clip-path="url(#clip0)">
<circle cx="23.5" cy="91.5" r="22.25" stroke="black" stroke-width="2.5"/>
<circle cx="23.5" cy="91.5" r="17.25" stroke="black" stroke-width="2.5"/>
<circle cx="97.5" cy="91.5" r="22.25" stroke="black" stroke-width="2.5"/>
<circle cx="97.5" cy="91.5" r="17.25" stroke="black" stroke-width="2.5"/>
<mask id="path-5-inside-1" fill="white">
<path d="M24.5 86C23.6464 86 22.8012 86.1552 22.0126 86.4567C21.2239 86.7583 20.5074 87.2002 19.9038 87.7574C19.3002 88.3145 18.8214 88.9759 18.4948 89.7039C18.1681 90.4319 18 91.2121 18 92C18 92.7879 18.1681 93.5681 18.4948 94.2961C18.8214 95.0241 19.3002 95.6855 19.9038 96.2426C20.5074 96.7998 21.2239 97.2417 22.0126 97.5433C22.8012 97.8448 23.6464 98 24.5 98V95.7815C23.962 95.7815 23.4293 95.6837 22.9323 95.4937C22.4352 95.3036 21.9836 95.0251 21.6032 94.6739C21.2228 94.3228 20.9211 93.9059 20.7152 93.4471C20.5093 92.9883 20.4033 92.4966 20.4033 92C20.4033 91.5034 20.5093 91.0117 20.7152 90.5529C20.9211 90.0941 21.2228 89.6772 21.6032 89.3261C21.9836 88.9749 22.4352 88.6964 22.9323 88.5063C23.4293 88.3163 23.962 88.2185 24.5 88.2185V86Z"/>
</mask>
<path d="M24.5 86C23.6464 86 22.8012 86.1552 22.0126 86.4567C21.2239 86.7583 20.5074 87.2002 19.9038 87.7574C19.3002 88.3145 18.8214 88.9759 18.4948 89.7039C18.1681 90.4319 18 91.2121 18 92C18 92.7879 18.1681 93.5681 18.4948 94.2961C18.8214 95.0241 19.3002 95.6855 19.9038 96.2426C20.5074 96.7998 21.2239 97.2417 22.0126 97.5433C22.8012 97.8448 23.6464 98 24.5 98V95.7815C23.962 95.7815 23.4293 95.6837 22.9323 95.4937C22.4352 95.3036 21.9836 95.0251 21.6032 94.6739C21.2228 94.3228 20.9211 93.9059 20.7152 93.4471C20.5093 92.9883 20.4033 92.4966 20.4033 92C20.4033 91.5034 20.5093 91.0117 20.7152 90.5529C20.9211 90.0941 21.2228 89.6772 21.6032 89.3261C21.9836 88.9749 22.4352 88.6964 22.9323 88.5063C23.4293 88.3163 23.962 88.2185 24.5 88.2185V86Z" stroke="black" stroke-width="5" mask="url(#path-5-inside-1)"/>
<mask id="path-6-inside-2" fill="white">
<path d="M58 101C60.3869 101 62.6761 100.052 64.364 98.364C66.0518 96.6761 67 94.3869 67 92C67 89.6131 66.0518 87.3239 64.364 85.636C62.6761 83.9482 60.3869 83 58 83L58 85.2339C59.7945 85.2339 61.5155 85.9468 62.7843 87.2157C64.0532 88.4845 64.7661 90.2055 64.7661 92C64.7661 93.7945 64.0532 95.5155 62.7843 96.7843C61.5155 98.0532 59.7945 98.7661 58 98.7661L58 101Z"/>
</mask>
<path d="M58 101C60.3869 101 62.6761 100.052 64.364 98.364C66.0518 96.6761 67 94.3869 67 92C67 89.6131 66.0518 87.3239 64.364 85.636C62.6761 83.9482 60.3869 83 58 83L58 85.2339C59.7945 85.2339 61.5155 85.9468 62.7843 87.2157C64.0532 88.4845 64.7661 90.2055 64.7661 92C64.7661 93.7945 64.0532 95.5155 62.7843 96.7843C61.5155 98.0532 59.7945 98.7661 58 98.7661L58 101Z" stroke="black" stroke-width="5" mask="url(#path-6-inside-2)"/>
<path d="M24 87L58 84M24 97L58 100" stroke="black" stroke-width="2.5" stroke-linecap="round"/>
<path d="M23.5 91.5L42 60.5M42 60.5H85M42 60.5L53.5 84M42 60.5L39 54M64 86L86 64.5M96.5 91.5C96.5 91.5 80.5 47.5 79.5 45.5C78.5 43.5 78.7321 43.5778 79.5 42C79.5 42 93.4065 41.4688 95 42C96.5 42.5 97.5 43.8203 97.5 45.5C97.5 48 96.7465 49.1901 95 50.5C93.6667 51.5 87 51.5 87 51.5" stroke="black" stroke-width="2.5"/>
<path d="M30.5004 47H44.0004C44.0004 47 46.3754 48.125 46.5004 49.5C46.6384 51.0188 45.0007 52 44.0004 52.5C43 53 39.5004 52.4307 38 53C36.4996 53.5693 35.7861 55.9487 33.5004 56.5C32.3615 56.7747 30.5004 56.5 30.5004 56.5C30.5004 56.5 28.1157 55.0384 27.5004 53.5C26.9202 52.0496 26.8299 50.9109 27.5004 49.5C28.155 48.1226 30.5004 47 30.5004 47Z" stroke="black" stroke-width="2.5"/>
<path d="M58 91V103.5" stroke="black" stroke-width="2.5"/>
<path d="M61.75 106.5C61.75 106.947 61.493 107.479 60.8187 107.951C60.1484 108.42 59.1557 108.75 58 108.75C56.8443 108.75 55.8516 108.42 55.1813 107.951C54.507 107.479 54.25 106.947 54.25 106.5C54.25 106.053 54.507 105.521 55.1813 105.049C55.8516 104.58 56.8443 104.25 58 104.25C59.1557 104.25 60.1484 104.58 60.8187 105.049C61.493 105.521 61.75 106.053 61.75 106.5Z" stroke="black" stroke-width="2.5"/>
<path d="M55.9999 85.5L32.9997 87.5C32.1664 90.6667 32.4766 96.8993 32.4996 96.5C32.5098 96.3221 50 98 55 98.5L55.9999 85.5Z" fill="white"/>
<circle cx="20" cy="18" r="8.75" stroke="black" stroke-width="2.5"/>
<path d="M20.5 0.5V5M8 6L11 9M2.5 18.5H7M8 31L11 28M20.5 35.5V31M33 31L30 28M38 18.5H33M33 6L30 9" stroke="black" stroke-width="2.5"/>
<path d="M77.5 14.5H87M103.5 14.5H112" stroke="black" stroke-width="2.5"/>
<mask id="path-16-inside-3" fill="white">
<path d="M106 15C106 13.3211 105.577 11.6691 104.771 10.1966C103.964 8.72398 102.8 7.47816 101.385 6.57399C99.9707 5.66981 98.3511 5.13638 96.676 5.02288C95.0009 4.90938 93.3242 5.21946 91.8005 5.92455C90.2767 6.62963 88.9551 7.707 87.9573 9.05733C86.9596 10.4077 86.3179 11.9875 86.0914 13.6511C85.8649 15.3147 86.0609 17.0085 86.6614 18.5764C87.2619 20.1443 88.2474 21.5358 89.5272 22.6225L91.1611 20.6985C90.2043 19.886 89.4675 18.8458 89.0186 17.6737C88.5697 16.5015 88.4232 15.2352 88.5925 13.9916C88.7618 12.7479 89.2415 11.5668 89.9874 10.5574C90.7333 9.54788 91.7214 8.74246 92.8605 8.21535C93.9996 7.68824 95.2531 7.45643 96.5054 7.54128C97.7577 7.62613 98.9684 8.02491 100.026 8.70086C101.084 9.37681 101.954 10.3082 102.557 11.409C103.16 12.5099 103.476 13.7448 103.476 15H106Z"/>
</mask>
<path d="M106 15C106 13.3211 105.577 11.6691 104.771 10.1966C103.964 8.72398 102.8 7.47816 101.385 6.57399C99.9707 5.66981 98.3511 5.13638 96.676 5.02288C95.0009 4.90938 93.3242 5.21946 91.8005 5.92455C90.2767 6.62963 88.9551 7.707 87.9573 9.05733C86.9596 10.4077 86.3179 11.9875 86.0914 13.6511C85.8649 15.3147 86.0609 17.0085 86.6614 18.5764C87.2619 20.1443 88.2474 21.5358 89.5272 22.6225L91.1611 20.6985C90.2043 19.886 89.4675 18.8458 89.0186 17.6737C88.5697 16.5015 88.4232 15.2352 88.5925 13.9916C88.7618 12.7479 89.2415 11.5668 89.9874 10.5574C90.7333 9.54788 91.7214 8.74246 92.8605 8.21535C93.9996 7.68824 95.2531 7.45643 96.5054 7.54128C97.7577 7.62613 98.9684 8.02491 100.026 8.70086C101.084 9.37681 101.954 10.3082 102.557 11.409C103.16 12.5099 103.476 13.7448 103.476 15H106Z" stroke="black" stroke-width="5" mask="url(#path-16-inside-3)"/>
<path d="M0.5 113.5H22.5M68 113.5H72.5M79.5 113.5L99.5 114" stroke="black" stroke-width="2.5"/>
</g>
<defs>
<clipPath id="clip0">
<rect width="121" height="115" fill="white"/>
</clipPath>
</defs>
</svg>
