<svg width="30" height="21" viewBox="0 0 30 21" fill="none" xmlns="http://www.w3.org/2000/svg">
<path d="M27.5 12.6875L27.5 17.5C27.5 17.7321 27.3683 17.9546 27.1339 18.1187C26.8995 18.2828 26.5815 18.375 26.25 18.375L3.75 18.375C3.41848 18.375 3.10053 18.2828 2.86611 18.1187C2.63169 17.9546 2.5 17.7321 2.5 17.5L2.5 12.6875C3.3288 12.6875 4.12366 12.457 4.70971 12.0468C5.29576 11.6366 5.625 11.0802 5.625 10.5C5.625 9.91984 5.29576 9.36344 4.70971 8.9532C4.12366 8.54297 3.3288 8.3125 2.5 8.3125L2.5 3.5C2.5 3.26794 2.63169 3.04538 2.86612 2.88128C3.10054 2.71719 3.41848 2.625 3.75 2.625L26.25 2.625C26.5815 2.625 26.8995 2.71719 27.1339 2.88128C27.3683 3.04538 27.5 3.26794 27.5 3.5L27.5 8.3125C26.6712 8.3125 25.8763 8.54297 25.2903 8.9532C24.7042 9.36344 24.375 9.91984 24.375 10.5C24.375 11.0802 24.7042 11.6366 25.2903 12.0468C25.8763 12.457 26.6712 12.6875 27.5 12.6875ZM12.5 16.625L25 16.625L25 14.028C24.061 13.7022 23.2707 13.1993 22.7181 12.576C22.1656 11.9526 21.8728 11.2336 21.8728 10.5C21.8728 9.7664 22.1656 9.04738 22.7181 8.42403C23.2707 7.80067 24.061 7.29776 25 6.972L25 4.375L12.5 4.375L12.5 16.625ZM10 16.625L10 4.375L5 4.375L5 6.972C5.93901 7.29776 6.72934 7.80067 7.28188 8.42403C7.83442 9.04738 8.12719 9.7664 8.12719 10.5C8.12719 11.2336 7.83442 11.9526 7.28188 12.576C6.72934 13.1993 5.93901 13.7022 5 14.028L5 16.625L10 16.625Z" fill="#888888"/>
</svg>
