<svg width="20" height="22" viewBox="0 0 20 22" fill="none" xmlns="http://www.w3.org/2000/svg">
<path d="M13 22V16.4072C13 15.5172 12.6839 14.6636 12.1213 14.0343C11.5587 13.405 10.7956 13.0515 10 13.0515C9.20435 13.0515 8.44129 13.405 7.87868 14.0343C7.31607 14.6636 7 15.5172 7 16.4072V22H2C1.46957 22 0.960859 21.7643 0.585786 21.3448C0.210714 20.9252 0 20.3562 0 19.7629V7.60628C-3.32274e-06 7.21996 0.0894306 6.84022 0.259593 6.50404C0.429755 6.16786 0.674846 5.8867 0.971 5.68794L8.971 0.318813C9.28183 0.110198 9.5793 0 10 0C10.4207 0 10.7182 0.110198 11.029 0.318813L19.029 5.68794C19.3252 5.8867 19.5702 6.16786 19.7404 6.50404C19.9106 6.84022 20 7.21996 20 7.60628V19.7629C20 20.3562 19.7893 20.9252 19.4142 21.3448C19.0391 21.7643 18.5304 22 18 22H13Z" fill="black"/>
</svg>
