<svg width="26" height="26" viewBox="0 0 26 26" fill="none" xmlns="http://www.w3.org/2000/svg">
<path d="M23.4331 17.8217H8.31294L9.07212 16.2754L21.6862 16.2525C22.1127 16.2525 22.4784 15.9479 22.5545 15.5264L24.3014 5.74844C24.3471 5.49199 24.2786 5.22793 24.111 5.02734C24.0282 4.92863 23.9249 4.84911 23.8082 4.7943C23.6916 4.7395 23.5645 4.71072 23.4356 4.70996L7.38872 4.65664L7.25161 4.01172C7.16528 3.60039 6.79458 3.30078 6.3731 3.30078H2.45024C2.21253 3.30078 1.98456 3.39521 1.81647 3.5633C1.64839 3.73138 1.55396 3.95936 1.55396 4.19707C1.55396 4.43478 1.64839 4.66276 1.81647 4.83084C1.98456 4.99893 2.21253 5.09336 2.45024 5.09336H5.64692L6.24614 7.94219L7.72134 15.0846L5.82212 18.1848C5.72349 18.3179 5.66408 18.476 5.65062 18.6411C5.63716 18.8062 5.67018 18.9718 5.74595 19.1191C5.89829 19.4213 6.20552 19.6117 6.54575 19.6117H8.14028C7.80035 20.0632 7.61674 20.6132 7.61724 21.1783C7.61724 22.6154 8.7852 23.7834 10.2223 23.7834C11.6594 23.7834 12.8274 22.6154 12.8274 21.1783C12.8274 20.6121 12.6395 20.0611 12.3043 19.6117H16.3948C16.0548 20.0632 15.8712 20.6132 15.8717 21.1783C15.8717 22.6154 17.0397 23.7834 18.4768 23.7834C19.9139 23.7834 21.0819 22.6154 21.0819 21.1783C21.0819 20.6121 20.894 20.0611 20.5588 19.6117H23.4356C23.9282 19.6117 24.3319 19.2105 24.3319 18.7154C24.3304 18.478 24.2351 18.2507 24.0667 18.0833C23.8983 17.9159 23.6705 17.8218 23.4331 17.8217ZM7.76196 6.42383L22.3819 6.47207L20.9499 14.4904L9.46567 14.5107L7.76196 6.42383ZM10.2223 21.9807C9.78052 21.9807 9.41997 21.6201 9.41997 21.1783C9.41997 20.7365 9.78052 20.376 10.2223 20.376C10.6641 20.376 11.0247 20.7365 11.0247 21.1783C11.0247 21.3911 10.9401 21.5952 10.7897 21.7457C10.6392 21.8961 10.4351 21.9807 10.2223 21.9807ZM18.4768 21.9807C18.035 21.9807 17.6745 21.6201 17.6745 21.1783C17.6745 20.7365 18.035 20.376 18.4768 20.376C18.9186 20.376 19.2792 20.7365 19.2792 21.1783C19.2792 21.3911 19.1946 21.5952 19.0441 21.7457C18.8937 21.8961 18.6896 21.9807 18.4768 21.9807Z" fill="#888888"/>
</svg>
