<svg width="127" height="127" viewBox="0 0 127 127" fill="none" xmlns="http://www.w3.org/2000/svg">
<path d="M62.5513 31.7303L65.7124 38.4379C66.002 39.0524 66.5837 39.4778 67.257 39.5677L74.5549 40.5418L69.2 45.6887L69.8929 46.4096L69.2 45.6887C68.7162 46.1537 68.4978 46.8303 68.6185 47.4904L69.9605 54.8283L63.5145 51.286C62.9147 50.9564 62.1879 50.9564 61.5881 51.286L55.1421 54.8283L56.4841 47.4904C56.6048 46.8303 56.3865 46.1537 55.9027 45.6887L55.2097 46.4096L55.9027 45.6887L50.5478 40.5418L57.8456 39.5677C58.5189 39.4778 59.1006 39.0524 59.3902 38.4379L62.5513 31.7303Z" stroke="black" stroke-width="2"/>
<circle cx="63.077" cy="45.1539" r="26.3333" stroke="black" stroke-width="2"/>
<path d="M71.1891 6.00499C64.3861 -0.648118 60.7126 -0.68851 54.3686 6.00499C41.5476 4.51348 37.3466 6.97709 35.4455 17.5692C24.2913 20.5632 22.5384 25.2221 23.8814 36.4923C17.2268 42.8877 17.3139 46.5711 23.8814 53.3128C22.0933 64.866 22.8507 70.0064 33.343 72.2358C36.09 82.5925 39.8921 85.7852 53.3173 83.7999C60.0479 91.0951 64.1193 91.8858 72.2404 83.7999C88.8549 85.9156 90.6984 80.5188 94.3173 71.1846C103.282 69.7932 104.247 65.2879 101.676 53.3128C108.741 46.9856 109.117 43.5245 101.676 37.5435C103.476 25.2067 102.125 20.1383 90.1122 18.6205C88.5948 6.91638 84.212 4.43074 71.1891 6.00499Z" stroke="black" stroke-width="2"/>
<path d="M34.6923 76.6923L13.6667 111.385L30.4872 108.231L34.6923 124L55.718 87.2051M69.3846 87.2051L89.359 124L93.5641 108.231L112.487 113.487L92.5128 77.7436" stroke="black" stroke-width="2"/>
<path d="M112.487 1C112.487 1 111.72 6.33933 109.333 8.35897C107.351 10.0362 103.026 10.4615 103.026 10.4615" stroke="black" stroke-width="2" stroke-linecap="round" stroke-linejoin="round"/>
<path d="M112.487 1C112.487 1 113.254 6.33933 115.641 8.35897C117.623 10.0362 121.949 10.4615 121.949 10.4615" stroke="black" stroke-width="2" stroke-linecap="round" stroke-linejoin="round"/>
<path d="M112.487 19.9231C112.487 19.9231 111.72 14.5837 109.333 12.5641C107.351 10.8869 103.026 10.4615 103.026 10.4615" stroke="black" stroke-width="2" stroke-linecap="round" stroke-linejoin="round"/>
<path d="M112.487 19.9231C112.487 19.9231 113.254 14.5837 115.641 12.5641C117.623 10.8869 121.949 10.4615 121.949 10.4615" stroke="black" stroke-width="2" stroke-linecap="round" stroke-linejoin="round"/>
<path d="M112.487 68.282C112.487 68.282 111.72 73.6214 109.333 75.641C107.351 77.3182 103.026 77.7436 103.026 77.7436" stroke="black" stroke-width="2" stroke-linecap="round" stroke-linejoin="round"/>
<path d="M112.487 68.282C112.487 68.282 113.254 73.6214 115.641 75.641C117.623 77.3182 121.949 77.7436 121.949 77.7436" stroke="black" stroke-width="2" stroke-linecap="round" stroke-linejoin="round"/>
<path d="M112.487 87.2051C112.487 87.2051 111.72 81.8658 109.333 79.8462C107.351 78.1689 103.026 77.7436 103.026 77.7436" stroke="black" stroke-width="2" stroke-linecap="round" stroke-linejoin="round"/>
<path d="M112.487 87.2051C112.487 87.2051 113.254 81.8658 115.641 79.8462C117.623 78.1689 121.949 77.7436 121.949 77.7436" stroke="black" stroke-width="2" stroke-linecap="round" stroke-linejoin="round"/>
<path d="M13.6667 68.282C13.6667 68.282 12.8997 73.6214 10.5128 75.641C8.53066 77.3182 4.20514 77.7436 4.20514 77.7436" stroke="black" stroke-width="2" stroke-linecap="round" stroke-linejoin="round"/>
<path d="M13.6666 68.282C13.6666 68.282 14.4336 73.6214 16.8205 75.641C18.8027 77.3182 23.1282 77.7436 23.1282 77.7436" stroke="black" stroke-width="2" stroke-linecap="round" stroke-linejoin="round"/>
<path d="M13.6667 87.2051C13.6667 87.2051 12.8997 81.8658 10.5128 79.8462C8.53066 78.1689 4.20514 77.7436 4.20514 77.7436" stroke="black" stroke-width="2" stroke-linecap="round" stroke-linejoin="round"/>
<path d="M13.6666 87.2051C13.6666 87.2051 14.4336 81.8658 16.8205 79.8462C18.8027 78.1689 23.1282 77.7436 23.1282 77.7436" stroke="black" stroke-width="2" stroke-linecap="round" stroke-linejoin="round"/>
<path d="M11.5641 1C11.5641 1 10.7971 6.33933 8.41023 8.35897C6.42806 10.0362 2.10254 10.4615 2.10254 10.4615" stroke="black" stroke-width="2" stroke-linecap="round" stroke-linejoin="round"/>
<path d="M11.5641 1C11.5641 1 12.3311 6.33933 14.7179 8.35897C16.7001 10.0362 21.0256 10.4615 21.0256 10.4615" stroke="black" stroke-width="2" stroke-linecap="round" stroke-linejoin="round"/>
<path d="M11.5641 19.9231C11.5641 19.9231 10.7971 14.5837 8.41023 12.5641C6.42806 10.8869 2.10254 10.4615 2.10254 10.4615" stroke="black" stroke-width="2" stroke-linecap="round" stroke-linejoin="round"/>
<path d="M11.5641 19.9231C11.5641 19.9231 12.3311 14.5837 14.7179 12.5641C16.7001 10.8869 21.0256 10.4615 21.0256 10.4615" stroke="black" stroke-width="2" stroke-linecap="round" stroke-linejoin="round"/>
<rect x="117.744" y="38.8462" width="4.20513" height="4.20513" fill="black"/>
<rect x="4.20514" y="38.8462" width="4.20513" height="4.20513" fill="black"/>
<rect x="121.949" y="43.0513" width="4.20513" height="4.20513" fill="black"/>
<rect x="8.41028" y="43.0513" width="4.20513" height="4.20513" fill="black"/>
<rect x="113.538" y="43.0513" width="4.20513" height="4.20513" fill="black"/>
<rect y="43.0513" width="4.20513" height="4.20513" fill="black"/>
<rect x="117.744" y="47.2564" width="4.20513" height="4.20513" fill="black"/>
<rect x="4.20514" y="47.2564" width="4.20513" height="4.20513" fill="black"/>
</svg>
